<svg width="60" height="63" viewBox="0 0 60 63" fill="none" xmlns="http://www.w3.org/2000/svg">
<path fill-rule="evenodd" clip-rule="evenodd" d="M20.6644 17.3746C18.817 17.3683 17.4441 19.0839 17.499 20.9496C17.5517 22.7421 17.4675 25.063 16.9118 26.9541C16.3541 28.8505 15.4184 30.0503 13.8959 30.1995L13.89 31.9427C15.4114 32.1026 16.339 33.3081 16.8837 35.2085C17.4266 37.1033 17.495 39.4248 17.4302 41.2168C17.3627 43.0819 18.7238 44.807 20.5716 44.8132L39.5015 44.8774C41.349 44.8837 42.7215 43.1681 42.6666 41.3024C42.614 39.51 42.6982 37.189 43.2539 35.2979C43.8116 33.4013 44.745 32.2016 46.2676 32.0525L46.2735 30.3093C44.752 30.1494 43.8267 28.944 43.2819 27.0435C42.7389 25.149 42.6706 22.8273 42.7354 21.0352C42.8029 19.1702 41.442 17.4451 39.5946 17.4388L20.6641 17.3746L20.6644 17.3746ZM35.8331 34.3165C35.8244 36.8852 34.018 38.437 31.0291 38.4269L25.9412 38.4096C25.7956 38.4091 25.6562 38.3471 25.5537 38.2373C25.4512 38.1275 25.3938 37.9788 25.3944 37.8239L25.4399 24.3965C25.4404 24.2417 25.4988 24.0934 25.602 23.9843C25.7053 23.8751 25.8451 23.8141 25.9907 23.8146L31.0497 23.8317C33.5419 23.8402 35.1727 25.2819 35.1652 27.4869C35.16 29.0345 34.0549 30.4163 32.6523 30.6543L32.652 30.735C34.5595 30.9641 35.8397 32.3745 35.8331 34.3165ZM30.5176 25.6806L27.6165 25.6708L27.6017 30.0301L30.0451 30.0384C31.934 30.0448 32.9783 29.2392 32.9832 27.7928C32.9876 26.4374 32.0947 25.6859 30.5176 25.6806ZM27.5958 31.7598L27.5795 36.5639L30.5874 36.5741C32.5541 36.5808 33.5986 35.7448 33.604 34.1671C33.6093 32.5894 32.5411 31.7763 30.4772 31.7693L27.5958 31.7595L27.5958 31.7598Z" fill="#7952B3"/>
</svg>
