<svg width="54" height="57" viewBox="0 0 54 57" fill="none" xmlns="http://www.w3.org/2000/svg">
<path d="M39.9071 13.0811L37.463 41.0697L26.8927 44.1483L16.3727 41.0026L14.121 12.9937L39.9071 13.0811Z" fill="#264DE4"/>
<path d="M35.4578 39.2802L37.5465 15.3626L27.0062 15.3269L26.9166 41.7679L35.4578 39.2802Z" fill="#2965F1"/>
<path d="M19.4578 25.6865L19.7354 29.1217L26.9594 29.1462L26.9711 25.712L19.4578 25.6865Z" fill="#EBEBEB"/>
<path d="M26.9946 18.7611L26.9834 18.7611L18.8999 18.7336L19.1817 22.1689L26.9829 22.1953L26.9946 18.7611Z" fill="#EBEBEB"/>
<path d="M26.9286 38.2041L26.9407 34.631L26.9266 34.635L23.3349 33.5901L23.1143 30.8503L21.3673 30.8444L19.8738 30.8394L20.3078 36.2331L26.9138 38.2084L26.9286 38.2041Z" fill="#EBEBEB"/>
<path d="M30.9234 29.1595L30.5336 33.6122L26.9297 34.6338L26.9176 38.2066L33.5421 36.2779L33.5926 35.6978L34.3818 26.6593L34.4637 25.7373L35.0701 18.7884L26.9835 18.761L26.9719 22.1952L31.5207 22.2107L31.215 25.7263L26.9599 25.7119L26.9483 29.1461L30.9234 29.1595Z" fill="#FEE3CF"/>
</svg>
