<svg width="54" height="57" viewBox="0 0 54 57" fill="none" xmlns="http://www.w3.org/2000/svg">
<path d="M16.7303 40.8336L14.4795 12.8152L40.2691 12.9026L37.8283 40.89L27.2474 43.9698" fill="#E44D26"/>
<path d="M27.2767 41.5879L27.3663 15.158L37.9082 15.1937L35.8155 39.0835" fill="#F16529"/>
<path d="M19.2512 18.5562L27.3549 18.5836L27.3432 22.0169L22.7796 22.0014L23.0662 25.5188L27.3313 25.5333L27.3197 28.959L20.0975 28.9345L19.2512 18.5562ZM20.2338 30.6592L23.4753 30.6702L23.6934 33.416L27.3011 34.4567L27.2889 38.0412L20.6705 36.0526" fill="#EBEBEB"/>
<path d="M35.4299 18.6109L27.3405 18.5835L27.3288 22.0167L35.1197 22.0432L35.4299 18.6109ZM34.8163 25.5586L27.3169 25.5332L27.3052 28.9664L31.286 28.9799L30.8941 33.4403L27.2866 34.4566L27.2745 38.0259L33.892 36.0973" fill="#FEE3CF"/>
</svg>
