<svg width="59" height="61" viewBox="0 0 59 61" fill="none" xmlns="http://www.w3.org/2000/svg">
<path d="M45.9695 14.1533L13.5919 14.0435L13.4789 47.3766L45.8565 47.4864L45.9695 14.1533Z" fill="#F7DF1E"/>
<path d="M35.2531 40.1589C35.9016 41.2574 36.7473 42.0661 38.248 42.0711C39.5087 42.0754 40.3162 41.4295 40.3192 40.5332C40.3229 39.4591 39.4967 39.0759 38.1113 38.4463L37.3518 38.1078C35.1595 37.1374 33.7051 35.9261 33.7137 33.3758C33.7217 31.0266 35.4664 29.2442 38.1835 29.2534C40.118 29.26 41.5063 29.9578 42.5023 31.776L40.1278 33.3341C39.6094 32.3694 39.048 31.9881 38.1743 31.9851C37.2831 31.9821 36.7163 32.5622 36.7138 33.3225C36.7106 34.2622 37.2746 34.6445 38.578 35.231L39.3375 35.569C41.9187 36.719 43.3743 37.8874 43.3654 40.5033C43.3559 43.3234 41.1988 44.8611 38.309 44.8513C35.4834 44.8417 33.6626 43.4493 32.7756 41.6293L35.2531 40.1589ZM24.5044 40.3938C24.9794 41.2685 25.4116 42.008 26.457 42.0116C27.4566 42.015 28.0885 41.6145 28.0938 40.0489L28.13 29.3981L31.1724 29.4085L31.1362 40.1015C31.1252 43.3449 29.2731 44.8148 26.577 44.8057C24.141 44.7974 22.7346 43.4947 22.0225 41.9291L24.5044 40.3938Z" fill="black"/>
</svg>
