<svg width="54" height="57" viewBox="0 0 54 57" fill="none" xmlns="http://www.w3.org/2000/svg">
<path d="M40.2308 12.9508L26.1483 12.9031C26.1422 14.6967 26.8062 16.4191 27.994 17.6914C29.1819 18.9638 30.7964 19.6818 32.4824 19.6875L35.0766 19.6963L35.0676 22.3609C35.0572 26.0925 37.8899 29.1267 41.3976 29.141L41.4481 14.2546C41.4505 13.537 40.9057 12.9531 40.2308 12.9508Z" fill="#2684FF"/>
<path d="M33.2376 20.3918L19.1552 20.344C19.1447 24.0756 21.9774 27.1098 25.4852 27.1241L28.0794 27.1329L28.0703 29.806C28.0621 33.5376 30.8967 36.5697 34.4045 36.5816L34.455 21.6958C34.4574 20.978 33.9123 20.3942 33.2376 20.3919L33.2376 20.3918Z" fill="url(#paint0_linear_31_445)"/>
<path d="M26.2401 27.8285L12.1576 27.7808C12.1449 31.5158 14.9809 34.5533 18.4917 34.5652L21.094 34.574L21.085 37.2385C21.0746 40.9667 23.9024 43.9995 27.407 44.0185L27.4575 29.1324C27.4599 28.4146 26.9149 27.8308 26.2401 27.8285Z" fill="url(#paint1_linear_31_445)"/>
<defs>
<linearGradient id="paint0_linear_31_445" x1="34.1579" y1="20.4209" x2="27.7982" y2="26.6167" gradientUnits="userSpaceOnUse">
<stop offset="0.18" stop-color="#0052CC"/>
<stop offset="1" stop-color="#2684FF"/>
</linearGradient>
<linearGradient id="paint1_linear_31_445" x1="27.5634" y1="27.9067" x2="20.2348" y2="34.6384" gradientUnits="userSpaceOnUse">
<stop offset="0.18" stop-color="#0052CC"/>
<stop offset="1" stop-color="#2684FF"/>
</linearGradient>
</defs>
</svg>
