<svg width="61" height="62" viewBox="0 0 61 62" fill="none" xmlns="http://www.w3.org/2000/svg">
<path d="M30.6555 14.0775L31.5277 15.779C31.7241 16.0931 31.937 16.3713 32.188 16.6305C32.9238 17.3842 33.6094 18.1882 34.24 19.0371C35.7208 21.0541 36.7166 23.2919 37.4249 25.7108C37.8496 27.1884 38.0779 28.7035 38.0902 30.2348C38.1466 34.8129 36.6097 38.7385 33.5268 41.9949C33.0254 42.5113 32.484 42.9847 31.908 43.4105C31.6037 43.4095 31.4606 43.1686 31.3359 42.9469C31.1089 42.5357 30.9584 42.0845 30.8922 41.6164C30.7861 41.0622 30.717 40.5081 30.7539 39.9364L30.7548 39.6781C30.7303 39.6229 30.5482 14.2074 30.6555 14.0775Z" fill="#599636"/>
<path d="M30.6557 14.0213C30.62 13.9471 30.5838 14.0031 30.5477 14.039C30.5639 14.4097 30.4374 14.7396 30.2399 15.0545C30.023 15.3672 29.7364 15.6067 29.4487 15.8641C27.8504 17.2798 26.5904 18.9921 25.5794 20.9085C24.2342 23.4878 23.536 26.2546 23.3308 29.1692C23.2378 30.2204 23.6375 33.9324 23.9556 35.0041C24.8239 37.8492 26.3929 40.2362 28.4286 42.3101C28.9286 42.8096 29.4637 43.2731 30.0173 43.7187C30.1787 43.7192 30.1967 43.571 30.2341 43.461C30.3056 43.2256 30.3604 42.9851 30.3979 42.7415L30.7671 39.9746L30.6557 14.0213Z" fill="#6CAC48"/>
<path d="M31.4301 44.5336C31.4676 44.1101 31.6661 43.7592 31.8822 43.4094C31.6666 43.3166 31.5069 43.1328 31.3821 42.928C31.2746 42.7342 31.1858 42.5299 31.1169 42.3183C30.8687 41.5423 30.818 40.7288 30.7487 39.9365L30.7503 39.4568C30.6607 39.5306 30.64 40.1574 30.6397 40.2506C30.5846 41.0876 30.4739 41.9198 30.3084 42.7412C30.2539 43.0735 30.2168 43.4049 30.0173 43.6996C30.0172 43.7367 30.0171 43.7738 30.0344 43.8289C30.3539 44.8084 30.4389 45.8052 30.4899 46.8209L30.4887 47.1915C30.4872 47.6342 30.47 47.5409 30.8263 47.6904C30.97 47.7459 31.1303 47.7655 31.2739 47.8762C31.3818 47.8765 31.3996 47.7845 31.3998 47.7103L31.3484 47.1013L31.3542 45.4027C31.3377 45.1062 31.3922 44.812 31.4291 44.5346L31.4301 44.5336Z" fill="#C2BFBF"/>
</svg>
