<svg width="40" height="43" viewBox="0 0 40 43" fill="none" xmlns="http://www.w3.org/2000/svg">
<path d="M35.1682 10.2792L21.5814 1.83141C20.7254 1.30875 19.6018 1.30494 18.7355 1.82176L4.98529 10.1768C4.09855 10.7155 3.49334 11.7317 3.48964 12.8207L3.43273 29.6016C3.42904 30.6906 4.03999 31.7112 4.92335 32.2589L8.53355 34.4656C10.266 35.3811 10.7469 35.3827 11.5365 35.3854C14.107 35.3941 15.4475 33.7452 15.4573 30.8614L15.5135 14.2944C15.5146 14.0605 15.653 13.7128 15.4368 13.7121L13.7028 13.7062C13.4832 13.7054 13.0471 14.0521 13.0463 14.2857L12.9901 30.8527C12.9858 32.131 11.8662 33.3994 9.83846 32.312L6.10741 29.9982C5.97751 29.9223 5.89968 29.7701 5.90022 29.61L5.95713 12.8291C5.95767 12.6709 6.10101 12.5126 6.2333 12.432L19.9495 4.09126C20.0168 4.05351 20.0918 4.03391 20.1679 4.03417C20.244 4.03442 20.3189 4.05454 20.3859 4.09274L33.9173 12.5239C34.0468 12.6074 34.0256 12.7612 34.0251 12.9243L33.9682 29.7051C33.9676 29.8653 33.9955 30.0212 33.8672 30.0979L20.2266 38.4438C20.1097 38.5179 19.958 38.5174 19.8302 38.4425L16.3472 36.2161C16.2422 36.1508 16.1155 36.1271 16.0142 36.1868C15.0421 36.7685 14.8618 36.8457 13.9507 37.1783C13.7262 37.2605 13.3951 37.4034 14.0744 37.8116L18.6289 40.6995C19.0637 40.9688 19.5576 41.1115 20.0608 41.1132C20.566 41.1158 21.0629 40.9764 21.5014 40.7093L35.0936 32.3612C35.981 31.8156 36.432 30.8026 36.4357 29.7135L36.4926 12.9326C36.496 11.8436 36.0519 10.8265 35.1682 10.2792ZM24.3312 27.0133C20.7142 27.0011 19.9214 25.9369 19.6623 24.0227C19.6315 23.8165 19.4683 23.5695 19.2709 23.5689L17.5035 23.5629C17.2849 23.5621 17.1078 23.8437 17.107 24.0754C17.0987 26.5251 18.3409 29.4976 24.3227 29.5179C28.6525 29.5326 31.1415 27.7511 31.1522 24.5834C31.1629 21.4426 29.171 20.6116 24.9737 20.006C20.731 19.3948 20.3008 19.0918 20.3044 18.0339C20.3074 17.1618 20.6765 15.9998 23.8195 16.0105C26.6275 16.02 27.6604 16.6647 28.0795 18.6798C28.1156 18.8692 28.2777 19.0056 28.4612 19.0063L30.2359 19.0123C30.3451 19.0127 30.4492 18.9661 30.526 18.8833C30.6006 18.7943 30.6399 18.6826 30.6307 18.5624C30.367 15.0936 28.2073 13.4702 23.8278 13.4554C19.9317 13.4422 17.602 15.1845 17.592 18.1182C17.5812 21.3004 19.8906 22.1876 23.629 22.5937C28.1013 23.0755 28.4469 23.7723 28.4437 24.7084C28.4382 26.3346 27.2089 27.0231 24.3312 27.0133Z" fill="#83CD29"/>
</svg>
