<svg width="54" height="57" viewBox="0 0 54 57" fill="none" xmlns="http://www.w3.org/2000/svg">
<path d="M38.2361 19.1103C36.4668 16.6691 34.0527 14.8381 31.2992 13.8489C28.5457 12.8596 25.5764 12.7566 22.7668 13.5528C19.9573 14.349 17.4337 16.0086 15.5153 18.3218C13.5968 20.6351 12.3697 23.4979 11.989 26.5484C11.6084 29.5988 12.0914 32.6998 13.3769 35.4592C14.6623 38.2186 16.6926 40.5124 19.2109 42.0505C21.7291 43.5886 24.6223 44.302 27.5244 44.1003C30.4266 43.8987 33.2073 42.7911 35.515 40.9176C41.9565 35.6876 43.1751 25.9253 38.2357 19.1103L38.2361 19.1103Z" fill="#FF6C37"/>
<path d="M31.5447 22.9513L25.3225 29.5413L23.5769 27.6298C29.7008 21.195 30.3113 21.7804 31.5452 22.9513L31.5447 22.9513Z" fill="#FEE3CF"/>
<path d="M25.3218 29.7221C25.2669 29.7205 25.2146 29.6973 25.175 29.657L23.4169 27.7843C23.3773 27.7407 23.3553 27.6825 23.3555 27.622C23.3557 27.5615 23.3781 27.5035 23.418 27.4601C29.4557 21.1159 30.2758 21.4167 31.6924 22.7826C31.7161 22.8028 31.7351 22.8286 31.7477 22.858C31.7604 22.8873 31.7664 22.9193 31.7653 22.9515C31.7743 23.0148 31.7511 23.0793 31.7037 23.12L25.4815 29.6585C25.4379 29.7005 25.3808 29.7234 25.3218 29.7226L25.3218 29.7221ZM23.8829 27.6304L25.3237 29.165L31.2263 22.9628C31.0242 22.6929 30.735 22.5114 30.4142 22.4529C30.0933 22.3944 29.7633 22.4631 29.4873 22.6458C28.4195 23.1478 26.699 24.6844 23.8829 27.6304Z" fill="#FF6C37"/>
<path d="M27.0931 31.375L25.4083 29.5415L31.6302 23.0808C33.291 24.8107 30.8059 27.68 27.0931 31.3745L27.0931 31.375Z" fill="#FEE3CF"/>
<path d="M27.0924 31.6082C27.0382 31.6035 26.9868 31.5807 26.9456 31.5431L25.224 29.7484C25.1983 29.6818 25.1985 29.6072 25.2247 29.5408C25.2065 29.4862 25.2067 29.4266 25.2252 29.3721L31.4474 22.8341C31.4907 22.7914 31.5477 22.7678 31.6068 22.768C31.666 22.7682 31.7229 22.7922 31.7658 22.8352C31.9659 23.0314 32.1238 23.2709 32.2285 23.5374C32.3333 23.8039 32.3826 24.0912 32.3731 24.3797C32.3672 26.1297 30.4726 28.3268 27.2516 31.531C27.2086 31.5757 27.1521 31.6031 27.0919 31.6082L27.0924 31.6082ZM25.7269 29.5425L27.1064 31.0113C29.5651 28.5697 31.9144 26.0499 31.9321 24.3388C31.9467 23.9761 31.8345 23.6205 31.6171 23.3398L25.7269 29.5425Z" fill="#FF6C37"/>
<path d="M23.6255 27.6688L24.8465 28.9694C24.8543 28.9768 24.8605 28.9857 24.8648 28.9958C24.8691 29.0059 24.8712 29.0168 24.8712 29.0278C24.8712 29.0389 24.8689 29.0498 24.8646 29.0598C24.8603 29.0699 24.854 29.0788 24.8461 29.0861L22.2586 29.6606C22.2064 29.6724 22.1519 29.6657 22.1036 29.6417C22.0553 29.6177 22.0157 29.5777 21.9909 29.5277C21.9661 29.4777 21.9574 29.4204 21.9662 29.3647C21.975 29.309 22.0007 29.2578 22.0395 29.219L23.552 27.6428C23.552 27.6428 23.6012 27.643 23.6255 27.6688Z" fill="#FEE3CF"/>
<path d="M22.1966 29.9195C22.1149 29.9181 22.0349 29.8946 21.9643 29.8512C21.8936 29.8078 21.8347 29.746 21.7931 29.6716C21.7463 29.5775 21.7296 29.4698 21.7454 29.3647C21.7612 29.2596 21.8088 29.1627 21.881 29.0886L23.3811 27.4992C23.4352 27.4485 23.505 27.4205 23.5773 27.4208C23.6496 27.421 23.7193 27.4494 23.7731 27.5006L24.9941 28.8012C25.0665 28.8743 25.0946 28.9848 25.0667 29.0868C25.0387 29.1888 24.9576 29.2697 24.8578 29.2936L22.2703 29.8682L22.1966 29.9195ZM23.5758 27.9539L22.1864 29.4139L24.4796 28.903L23.5758 27.9539Z" fill="#FF6C37"/>
<path d="M34.8535 19.3195C33.9698 18.4114 32.5767 18.3688 31.6438 19.2197C30.7109 20.0706 30.5469 21.5362 31.2675 22.5935C31.9881 23.6508 33.3523 23.951 34.4114 23.2847L32.7508 21.5159L34.8535 19.3195Z" fill="#FEE3CF"/>
<path d="M33.1839 23.8764C32.6745 23.8677 32.1787 23.7007 31.7584 23.396C31.3382 23.0914 31.012 22.6626 30.8206 22.1631C30.6293 21.664 30.5805 21.1164 30.6803 20.5882C30.7801 20.0599 31.0241 19.5741 31.3821 19.191C31.8744 18.6832 32.5353 18.4 33.2227 18.4023C33.9102 18.4046 34.5692 18.6923 35.058 19.2034C35.1047 19.2454 35.1312 19.3072 35.131 19.3724C35.1307 19.4044 35.124 19.436 35.1112 19.4651C35.0984 19.4941 35.0799 19.52 35.0569 19.5408L33.0651 21.5174L34.5669 23.0911C34.5913 23.1159 34.6095 23.1466 34.6201 23.1805C34.6306 23.2144 34.6331 23.2506 34.6274 23.2858C34.6237 23.3198 34.6129 23.3524 34.5959 23.3815C34.5789 23.4106 34.556 23.4354 34.529 23.4541C34.1231 23.7205 33.6572 23.8666 33.1798 23.8773L33.1839 23.8764ZM33.201 18.8466C32.3279 18.8485 31.5449 19.4015 31.2144 20.2496C30.8839 21.0977 31.0589 22.0759 31.6687 22.7303C31.9721 23.0553 32.3611 23.2757 32.785 23.3628C33.2088 23.4498 33.6477 23.3994 34.0441 23.2182L32.6032 21.6835C32.5803 21.664 32.5618 21.6392 32.5492 21.6111C32.5365 21.583 32.53 21.5523 32.5301 21.5211C32.5302 21.49 32.5369 21.4593 32.5498 21.4313C32.5626 21.4032 32.5813 21.3786 32.6043 21.3593L34.5227 19.3304C34.1438 19.0211 33.6797 18.851 33.201 18.8462L33.201 18.8466Z" fill="#FF6C37"/>
<path d="M34.8902 19.3584L32.7874 21.5548L34.448 23.3236C34.6161 23.2223 34.7727 23.101 34.9147 22.962C35.3532 22.4751 35.5957 21.8271 35.5911 21.1547C35.5865 20.4823 35.3352 19.8383 34.8902 19.3584Z" fill="#FEE3CF"/>
<path d="M34.4101 23.5179C34.3826 23.5194 34.3551 23.5143 34.3297 23.5031C34.3043 23.4918 34.2816 23.4746 34.2633 23.4528L32.6027 21.684C32.5798 21.6645 32.5613 21.6398 32.5487 21.6117C32.536 21.5836 32.5295 21.5528 32.5296 21.5217C32.5297 21.4905 32.5364 21.4598 32.5493 21.4318C32.5621 21.4038 32.5808 21.3792 32.6038 21.3598L34.694 19.2022C34.7143 19.1702 34.7417 19.144 34.7738 19.1259C34.8059 19.1078 34.8418 19.0984 34.8782 19.0985C34.9146 19.0986 34.9504 19.1083 34.9824 19.1266C35.0144 19.1449 35.0416 19.1713 35.0616 19.2035C35.3053 19.4578 35.4985 19.761 35.63 20.0953C35.7615 20.4296 35.8286 20.7884 35.8274 21.1505C35.8261 21.5127 35.7566 21.871 35.6229 22.2044C35.4891 22.5378 35.2938 22.8397 35.0484 23.0923C34.9036 23.2537 34.7381 23.3927 34.5568 23.5053C34.5111 23.5295 34.4584 23.534 34.4097 23.5179L34.4101 23.5179ZM33.0692 21.5174L34.4487 22.9868C34.5442 22.9165 34.6346 22.8388 34.7192 22.7543C35.1276 22.3263 35.3588 21.7444 35.362 21.1363C35.3648 20.5921 35.1791 20.0658 34.84 19.6568L33.0692 21.5174Z" fill="#FF6C37"/>
<path d="M31.8012 23.2242C31.6358 23.0588 31.417 22.9663 31.1893 22.9655C30.9616 22.9647 30.7422 23.0557 30.5757 23.2201L25.0056 29.0598L25.9213 30.0482L31.8088 24.6237C31.8986 24.5333 31.97 24.4244 32.0185 24.3037C32.0671 24.183 32.0917 24.053 32.091 23.9219C32.0903 23.7907 32.0642 23.6611 32.0144 23.541C31.9645 23.421 31.892 23.313 31.8012 23.2237L31.8012 23.2242Z" fill="#FEE3CF"/>
<path d="M25.8714 30.2818C25.8165 30.2802 25.7641 30.257 25.7246 30.2167L24.7965 29.2282C24.757 29.1846 24.7349 29.1264 24.7352 29.0659C24.7354 29.0054 24.7578 28.9473 24.7976 28.904L30.3681 23.0764C30.5286 22.908 30.7331 22.7945 30.9552 22.7506C31.1774 22.7066 31.4068 22.7343 31.6139 22.83C31.8209 22.9257 31.996 23.085 32.1163 23.2872C32.2367 23.4895 32.2969 23.7253 32.289 23.9642C32.2821 24.1264 32.2447 24.2855 32.1789 24.4322C32.1132 24.5789 32.0204 24.7102 31.9061 24.8185L26.0186 30.243C25.9758 30.2748 25.9233 30.2885 25.8714 30.2814L25.8714 30.2818ZM25.2263 29.0605L25.8365 29.7237L31.6133 24.4413C31.7562 24.3105 31.8418 24.1231 31.848 23.9234C31.8542 23.7236 31.7804 23.5279 31.6417 23.3914C31.5136 23.2555 31.3398 23.1788 31.1583 23.1782C30.9769 23.1776 30.8026 23.2531 30.6735 23.3881L25.2263 29.0605Z" fill="#FF6C37"/>
<path d="M20.6822 35.7215C20.6665 35.744 20.6579 35.7712 20.6578 35.7992C20.6577 35.8272 20.6661 35.8545 20.6817 35.8771L20.9228 37.0057C20.9323 37.0721 20.9228 37.14 20.8954 37.2006C20.868 37.2612 20.824 37.3116 20.7691 37.3454C20.7143 37.379 20.651 37.3934 20.5881 37.3864C20.5252 37.3795 20.466 37.3516 20.4191 37.3068L18.7463 35.59L23.9975 30.0287L25.8111 30.0349L27.0321 31.3355C25.1145 33.0972 22.978 34.5729 20.6822 35.7215Z" fill="#FEE3CF"/>
<path d="M20.5655 37.6265C20.4268 37.6231 20.29 37.5624 20.1985 37.4566L18.5993 35.7532C18.5763 35.7337 18.5579 35.7089 18.5452 35.6808C18.5325 35.6527 18.526 35.622 18.5261 35.5908C18.5262 35.5597 18.533 35.529 18.5458 35.5009C18.5587 35.4729 18.5773 35.4483 18.6004 35.429L23.8878 29.86C23.9174 29.827 23.9561 29.8045 23.9983 29.7958L25.8239 29.8019C25.8715 29.7843 25.9234 29.7845 25.9709 29.8024L27.192 31.103C27.2152 31.1258 27.2328 31.1543 27.2434 31.1859C27.2539 31.2175 27.257 31.2514 27.2525 31.2846C27.2532 31.3168 27.2469 31.3487 27.2341 31.378C27.2212 31.4072 27.2022 31.4329 27.1784 31.453L27.0802 31.5436C25.1551 33.2298 23.0387 34.6553 20.7799 35.7868L21.0093 36.8376C21.027 36.9187 21.0275 37.0029 21.0105 37.0842C20.9935 37.1654 20.9597 37.2417 20.9113 37.3073C20.863 37.373 20.8014 37.4264 20.731 37.4636C20.6607 37.5009 20.5834 37.5211 20.5048 37.5228L20.5655 37.6265ZM19.0777 35.5861L20.518 37.1334C20.5315 37.1462 20.5489 37.1533 20.5669 37.1533C20.5849 37.1534 20.6024 37.1464 20.6159 37.1338C20.625 37.1206 20.6299 37.1047 20.6299 37.0884C20.63 37.0721 20.6252 37.0561 20.6162 37.0429L20.3751 35.9143C20.3561 35.8333 20.3641 35.7478 20.3979 35.6723C20.4317 35.5969 20.489 35.5361 20.5603 35.5003C22.7584 34.3837 24.8203 32.989 26.7009 31.3469L25.6996 30.2803L24.0578 30.2748L19.0777 35.5861Z" fill="#FF6C37"/>
<path d="M17.4801 36.916L18.7099 35.6237L20.5903 37.6265L17.5892 37.3961C17.5377 37.3917 17.4888 37.3701 17.4495 37.3345C17.4103 37.299 17.3827 37.2512 17.3706 37.198C17.3586 37.1448 17.3627 37.0889 17.3825 37.0384C17.4022 36.9878 17.4365 36.9452 17.4805 36.9165L17.4801 36.916Z" fill="#FEE3CF"/>
<path d="M20.6259 37.8212L17.6367 37.5909C17.4594 37.5728 17.3073 37.4439 17.2454 37.2721C17.1835 37.1003 17.2223 36.8968 17.3455 36.7601L18.5753 35.4678C18.6166 35.4259 18.6716 35.4026 18.7288 35.4028C18.786 35.403 18.8408 35.4267 18.8818 35.4689L20.7498 37.4585C20.7756 37.4962 20.7895 37.5416 20.7893 37.5882C20.7891 37.6348 20.775 37.6801 20.7489 37.7176C20.7204 37.766 20.6769 37.8025 20.6259 37.8207L20.6259 37.8212ZM17.6385 37.0853L20.0883 37.2623L18.7452 35.9224L17.6385 37.0853Z" fill="#FF6C37"/>
<path d="M25.9819 30.1919L23.5053 30.5855L24.944 29.0869L25.9819 30.1919Z" fill="#FEE3CF"/>
<path d="M23.5045 30.831C23.4633 30.832 23.4228 30.8201 23.388 30.7969C23.3532 30.7737 23.3256 30.7402 23.3087 30.7005C23.2827 30.6629 23.2688 30.6174 23.269 30.5708C23.2691 30.5242 23.2834 30.4789 23.3096 30.4414L24.7359 28.9296C24.7792 28.8869 24.8362 28.8632 24.8953 28.8634C24.9545 28.8636 25.0114 28.8877 25.0543 28.9307L26.0927 30.0357C26.1134 30.0707 26.1243 30.1112 26.1242 30.1525C26.124 30.1938 26.1128 30.2342 26.0919 30.2691C26.0815 30.3116 26.0598 30.3501 26.0293 30.3799C25.9988 30.4097 25.9608 30.4296 25.92 30.4372L23.4682 30.8309L23.5045 30.831ZM24.9428 29.4227L24.1437 30.2625L25.5169 30.0469L24.9428 29.4227Z" fill="#FF6C37"/>
<path d="M25.9819 30.1908L24.2535 30.4183C24.2072 30.4292 24.1589 30.4241 24.1156 30.4037C24.0723 30.3833 24.0363 30.3486 24.0131 30.3049C23.9899 30.2612 23.9806 30.2107 23.9867 30.1609C23.9927 30.1112 24.0138 30.0648 24.0467 30.0287L24.9445 29.0853L25.9819 30.1908Z" fill="#FEE3CF"/>
<path d="M24.2034 30.6652C24.1233 30.6641 24.045 30.6406 23.9763 30.5971C23.9076 30.5536 23.851 30.4916 23.8123 30.4174C23.7658 30.3286 23.748 30.226 23.7616 30.1254C23.7752 30.0249 23.8195 29.9317 23.8877 29.8601L24.7856 28.9167C24.8288 28.874 24.8858 28.8503 24.945 28.8505C25.0042 28.8507 25.061 28.8748 25.104 28.9178L26.1419 30.0233C26.1728 30.0545 26.1944 30.0945 26.2043 30.1384C26.2141 30.1823 26.2117 30.2283 26.1973 30.2708C26.1829 30.3133 26.1571 30.3505 26.1232 30.3779C26.0892 30.4052 26.0485 30.4215 26.0059 30.4249L24.2898 30.6524L24.2034 30.6652ZM24.205 30.1854L25.5046 30.0212L24.9309 29.4101L24.1931 30.1854L24.205 30.1854ZM34.897 20.8495C34.8741 20.8085 34.8377 20.7779 34.7948 20.7634C34.7519 20.7489 34.7055 20.7516 34.6643 20.7709C34.644 20.7817 34.6259 20.7967 34.6112 20.815C34.5964 20.8334 34.5853 20.8546 34.5785 20.8776C34.5647 20.9239 34.5688 20.9741 34.5899 21.0171C34.6752 21.2085 34.6506 21.4344 34.5269 21.6002C34.5115 21.6162 34.4995 21.6354 34.4915 21.6565C34.4835 21.6777 34.4798 21.7003 34.4805 21.7231C34.4808 21.7687 34.497 21.8125 34.526 21.8462C34.5574 21.8595 34.5924 21.8596 34.6239 21.8465C34.6524 21.8542 34.6824 21.8535 34.7105 21.8444C34.7386 21.8353 34.7639 21.8183 34.7835 21.7951C34.8849 21.6647 34.9493 21.5067 34.9694 21.3393C34.9895 21.1719 34.9644 21.0019 34.897 20.849L34.897 20.8495Z" fill="#FF6C37"/>
</svg>
