<svg width="63" height="66" viewBox="0 0 63 66" fill="none" xmlns="http://www.w3.org/2000/svg">
<path d="M31.5265 36.0687C33.2047 36.0743 34.5699 34.6755 34.5758 32.9443C34.5817 31.2131 33.226 29.8051 31.5478 29.7994C29.8696 29.7937 28.5044 31.1925 28.4985 32.9237C28.4927 34.6549 29.8483 36.063 31.5265 36.0687Z" fill="#61DAFB"/>
<path fill-rule="evenodd" clip-rule="evenodd" d="M17.2552 31.2361C16.5639 31.8754 16.3355 32.4342 16.334 32.8823C16.3325 33.3305 16.5571 33.8908 17.244 34.5348C17.9304 35.1784 18.9869 35.8118 20.3872 36.3689C23.18 37.4799 27.1153 38.1983 31.5193 38.2132C35.9233 38.2282 39.8634 37.5364 42.6637 36.4444C44.0677 35.8969 45.1285 35.2706 45.8193 34.6317C46.5105 33.9923 46.7389 33.4336 46.7404 32.9854C46.742 32.5373 46.5174 31.977 45.8305 31.333C45.144 30.6894 44.0875 30.0559 42.6872 29.4989C39.8944 28.3879 35.9591 27.6695 31.5551 27.6545C27.1511 27.6396 23.211 28.3313 20.4107 29.4234C19.0067 29.9709 17.946 30.5971 17.2552 31.2361ZM19.6358 27.2839C22.7447 26.0715 26.9619 25.3532 31.5629 25.3688C36.1638 25.3844 40.3761 26.1313 43.4766 27.3647C45.023 27.9799 46.3496 28.7384 47.3081 29.6371C48.2662 30.5353 48.9483 31.6676 48.9438 32.9929C48.9393 34.3182 48.2495 35.4459 47.2854 36.3376C46.3208 37.2297 44.9891 37.9793 43.4386 38.5839C40.3298 39.7963 36.1125 40.5145 31.5116 40.4989C26.9106 40.4833 22.6983 39.7365 19.5978 38.5031C18.0514 37.8879 16.7248 37.1294 15.7663 36.2307C14.8083 35.3325 14.1261 34.2001 14.1306 32.8749C14.1351 31.5496 14.8249 30.4219 15.789 29.5302C16.7536 28.638 18.0853 27.8885 19.6358 27.2839Z" fill="#61DAFB"/>
<path fill-rule="evenodd" clip-rule="evenodd" d="M25.833 19.3278C24.9518 19.0304 24.3656 19.1043 23.9839 19.3299C23.6022 19.5555 23.2439 20.0398 23.0468 20.9744C22.8497 21.9091 22.846 23.1689 23.0781 24.6976C23.541 27.7466 24.9042 31.6201 27.0922 35.5609C29.2802 39.5017 31.8292 42.6743 34.1443 44.6288C35.305 45.6086 36.3602 46.2426 37.2414 46.54C38.1225 46.8374 38.7088 46.7635 39.0904 46.5379C39.4721 46.3123 39.8305 45.828 40.0276 44.8933C40.2247 43.9587 40.2284 42.6989 39.9963 41.1702C39.5333 38.1212 38.1702 34.2476 35.9822 30.3069C33.7942 26.3661 31.2451 23.1935 28.93 21.239C27.7694 20.2592 26.7142 19.6252 25.833 19.3278ZM30.325 19.4741C32.8978 21.6461 35.6097 25.0559 37.8969 29.1753C40.1841 33.2947 41.6631 37.433 42.1776 40.8216C42.4342 42.5118 42.4605 44.0772 42.185 45.3835C41.9095 46.6899 41.3002 47.8623 40.19 48.5183C39.0799 49.1744 37.7915 49.1237 36.5599 48.708C35.3283 48.2924 34.0327 47.4771 32.7494 46.3937C30.1765 44.2216 27.4647 40.8119 25.1775 36.6925C22.8903 32.5731 21.4113 28.4348 20.8968 25.0462C20.6401 23.356 20.6139 21.7905 20.8893 20.4842C21.1648 19.1779 21.7742 18.0055 22.8843 17.3494C23.9945 16.6933 25.2829 16.7441 26.5145 17.1598C27.746 17.5754 29.0416 18.3907 30.325 19.4741Z" fill="#61DAFB"/>
<path fill-rule="evenodd" clip-rule="evenodd" d="M40.1085 21.0324C39.9178 20.0964 39.5627 19.6097 39.1826 19.3815C38.8024 19.1533 38.2167 19.0754 37.3336 19.3668C36.4504 19.6583 35.3909 20.2851 34.2236 21.257C31.8953 23.1957 29.3248 26.351 27.1101 30.2768C24.8955 34.2027 23.5061 38.0669 23.0224 41.1127C22.78 42.6397 22.7751 43.8995 22.9659 44.8356C23.1566 45.7715 23.5117 46.2582 23.8919 46.4864C24.272 46.7146 24.8577 46.7925 25.7409 46.5011C26.624 46.2096 27.6835 45.5828 28.8508 44.6109C31.1791 42.6722 33.7496 39.5169 35.9643 35.5911C38.179 31.6652 39.5684 27.801 40.052 24.7552C40.2945 23.2282 40.2993 21.9684 40.1085 21.0324ZM42.2309 25.1186C41.6934 28.5036 40.1864 32.6318 37.8713 36.7356C35.5562 40.8394 32.8213 44.2307 30.2337 46.3852C28.9431 47.4599 27.642 48.2664 26.4077 48.6737C25.1733 49.081 23.8845 49.123 22.7789 48.4594C21.6732 47.7958 21.0718 46.6193 20.8052 45.3111C20.5386 44.003 20.5755 42.4377 20.8436 40.7493C21.381 37.3643 22.8881 33.2361 25.2032 29.1323C27.5182 25.0285 30.2532 21.6372 32.8407 19.4827C34.1314 18.408 35.4324 17.6015 36.6668 17.1942C37.9012 16.7869 39.1899 16.7449 40.2956 17.4085C41.4012 18.0721 42.0026 19.2486 42.2692 20.5568C42.5359 21.8649 42.499 23.4302 42.2309 25.1186Z" fill="#61DAFB"/>
</svg>
