<svg width="54" height="57" viewBox="0 0 54 57" fill="none" xmlns="http://www.w3.org/2000/svg">
<path d="M26.6998 18.9771C22.8004 18.9639 20.3564 21.0291 19.3674 25.1725C20.8369 23.1039 22.5454 22.3324 24.4932 22.8572C25.6046 23.1567 26.3967 24.018 27.2737 24.971C28.702 26.5234 30.355 28.3201 33.9794 28.3324C37.8784 28.3456 40.3227 26.2804 41.3114 22.1366C39.8423 24.2052 38.1337 24.9771 36.1856 24.4523C35.0746 24.1528 34.2825 23.2915 33.4055 22.3385C31.9772 20.7861 30.3238 18.9894 26.6998 18.9771ZM19.3569 28.2828C15.4579 28.2696 13.0135 30.3349 12.0249 34.4786C13.494 32.4101 15.2025 31.6382 17.1506 32.1634C18.2617 32.4632 19.0538 33.3241 19.9308 34.2767C21.3591 35.8291 23.0125 37.6263 26.6365 37.6385C30.5358 37.6518 32.9798 35.5865 33.9688 31.4427C32.4994 33.5113 30.7908 34.2832 28.8431 33.758C27.7317 33.459 26.9396 32.5973 26.0626 31.6447C24.6343 30.0922 22.9812 28.2951 19.3569 28.2828Z" fill="#06B6D4"/>
</svg>
