<svg width="53" height="57" viewBox="0 0 53 57" fill="none" xmlns="http://www.w3.org/2000/svg">
<path d="M12.1138 23.3841C12.1138 23.3841 11.4034 22.8355 12.2606 22.109L14.2585 20.2214C14.2585 20.2214 14.8305 19.5856 15.431 20.1433L33.7577 35.0069L33.7336 42.1045C33.7336 42.1045 33.7209 43.219 32.3769 43.0913L12.1138 23.3841Z" fill="#2489CA"/>
<path d="M16.8351 27.9753L12.0829 32.5404C12.0829 32.5404 11.5948 32.924 12.0792 33.6139L14.2712 35.7494C14.2712 35.7494 14.7915 36.3479 15.5654 35.6717L20.6008 31.6379L16.8351 27.9753Z" fill="#1070B3"/>
<path d="M25.1509 28.0412L33.8617 21.0141L33.8292 13.9542C33.8292 13.9542 33.4635 12.4122 32.2232 13.21L20.6254 24.3633L25.1509 28.0412Z" fill="#0877B9"/>
<path d="M32.3771 43.1009C32.8797 43.652 33.4917 43.4741 33.4917 43.4741L40.2734 39.9483C41.1421 39.3229 41.0231 38.5426 41.0231 38.5426L41.095 17.351C41.0981 16.4196 40.2029 16.0945 40.2029 16.0945L34.3457 13.0657C33.0665 12.2184 32.2232 13.2101 32.2232 13.2101C32.2232 13.2101 33.3063 12.3865 33.8293 13.9543L33.7342 41.9752C33.7336 42.1678 33.6943 42.3571 33.6166 42.5273C33.4612 42.8583 33.1247 43.1666 32.3209 43.0344L32.3771 43.1009Z" fill="#3C99D4"/>
</svg>
