<svg width="138" height="138" viewBox="0 0 138 138" fill="none" xmlns="http://www.w3.org/2000/svg">
<path d="M15.7921 1.03897L0.687256 1.16882L0.812345 16.4942L15.9171 16.3643L15.7921 1.03897Z" fill="#0361DE"/>
<path d="M136.644 3.26013e-05L121.539 0.129883L121.664 15.4553L136.769 15.3254L136.644 3.26013e-05Z" fill="#0361DE"/>
<path d="M31.0256 15.8393L15.9208 15.9691L16.0459 31.2945L31.1507 31.1646L31.0256 15.8393Z" fill="#0361DE"/>
<path d="M46.0085 0.779207L30.9037 0.909058L31.0288 16.2344L46.1336 16.1046L46.0085 0.779207Z" fill="#0361DE"/>
<path d="M61.2353 15.5796L46.1305 15.7095L46.2556 31.0348L61.3604 30.905L61.2353 15.5796Z" fill="#0361DE"/>
<path d="M76.218 0.519442L61.1132 0.649292L61.2382 15.9747L76.343 15.8448L76.218 0.519442Z" fill="#0361DE"/>
<path d="M91.4448 15.3199L76.34 15.4497L76.4651 30.7751L91.5699 30.6452L91.4448 15.3199Z" fill="#0361DE"/>
<path d="M106.434 0.259676L91.3296 0.389526L91.4547 15.7149L106.559 15.585L106.434 0.259676Z" fill="#0361DE"/>
<path d="M121.661 15.0601L106.556 15.1899L106.681 30.5153L121.786 30.3855L121.661 15.0601Z" fill="#0361DE"/>
<path d="M16.039 31.3014L0.934204 31.4313L1.05929 46.7566L16.1641 46.6268L16.039 31.3014Z" fill="#0361DE"/>
<path d="M136.891 30.2625L121.786 30.3923L121.912 45.7177L137.016 45.5879L136.891 30.2625Z" fill="#0361DE"/>
<path d="M31.2725 46.0951L16.1677 46.225L16.2928 61.5503L31.3976 61.4205L31.2725 46.0951Z" fill="#0361DE"/>
<path d="M46.2554 31.0417L31.1506 31.1715L31.2757 46.4969L46.3805 46.367L46.2554 31.0417Z" fill="#0361DE"/>
<path d="M61.4822 45.8354L46.3774 45.9652L46.5025 61.2906L61.6073 61.1607L61.4822 45.8354Z" fill="#0361DE"/>
<path d="M76.4652 30.782L61.3604 30.9119L61.4854 46.2372L76.5902 46.1074L76.4652 30.782Z" fill="#0361DE"/>
<path d="M91.6917 45.5757L76.5869 45.7056L76.712 61.0309L91.8168 60.9011L91.6917 45.5757Z" fill="#0361DE"/>
<path d="M106.682 30.5222L91.5768 30.6521L91.7019 45.9775L106.807 45.8476L106.682 30.5222Z" fill="#0361DE"/>
<path d="M121.908 45.316L106.803 45.4458L106.928 60.7712L122.033 60.6413L121.908 45.316Z" fill="#0361DE"/>
<path d="M16.286 61.5572L1.18115 61.687L1.30624 77.0124L16.411 76.8825L16.286 61.5572Z" fill="#0361DE"/>
<path d="M137.138 60.5182L122.033 60.6481L122.159 75.9734L137.263 75.8436L137.138 60.5182Z" fill="#0361DE"/>
<path d="M31.5194 76.3576L16.4146 76.4874L16.5396 91.8128L31.6444 91.6829L31.5194 76.3576Z" fill="#0361DE"/>
<path d="M46.5024 61.2974L31.3976 61.4272L31.5227 76.7526L46.6275 76.6228L46.5024 61.2974Z" fill="#0361DE"/>
<path d="M61.7292 76.0978L46.6244 76.2277L46.7495 91.553L61.8543 91.4232L61.7292 76.0978Z" fill="#0361DE"/>
<path d="M76.7121 61.0378L61.6073 61.1676L61.7324 76.493L76.8372 76.3631L76.7121 61.0378Z" fill="#0361DE"/>
<path d="M91.9387 75.8382L76.8339 75.968L76.959 91.2934L92.0638 91.1635L91.9387 75.8382Z" fill="#0361DE"/>
<path d="M106.928 60.778L91.8236 60.9078L91.9487 76.2332L107.053 76.1034L106.928 60.778Z" fill="#0361DE"/>
<path d="M122.155 75.5784L107.05 75.7083L107.176 91.0336L122.28 90.9038L122.155 75.5784Z" fill="#0361DE"/>
<path d="M16.5329 91.813L1.4281 91.9429L1.55319 107.268L16.658 107.138L16.5329 91.813Z" fill="#0361DE"/>
<path d="M137.385 90.7738L122.28 90.9037L122.405 106.229L137.51 106.099L137.385 90.7738Z" fill="#0361DE"/>
<path d="M31.7663 106.613L16.6615 106.743L16.7866 122.068L31.8914 121.939L31.7663 106.613Z" fill="#0361DE"/>
<path d="M46.7493 91.553L31.6445 91.6829L31.7696 107.008L46.8744 106.878L46.7493 91.553Z" fill="#0361DE"/>
<path d="M61.976 106.354L46.8712 106.483L46.9963 121.809L62.1011 121.679L61.976 106.354Z" fill="#0361DE"/>
<path d="M76.959 91.2934L61.8542 91.4232L61.9793 106.749L77.0841 106.619L76.959 91.2934Z" fill="#0361DE"/>
<path d="M92.1856 106.094L77.0808 106.224L77.2059 121.549L92.3107 121.419L92.1856 106.094Z" fill="#0361DE"/>
<path d="M107.175 91.0336L92.0706 91.1635L92.1956 106.489L107.3 106.359L107.175 91.0336Z" fill="#0361DE"/>
<path d="M16.78 122.076L1.67517 122.205L1.80026 137.531L16.9051 137.401L16.78 122.076Z" fill="#0361DE"/>
<path d="M137.632 121.036L122.527 121.166L122.652 136.492L137.757 136.362L137.632 121.036Z" fill="#0361DE"/>
<path d="M46.9962 121.816L31.8914 121.945L32.0164 137.271L47.1212 137.141L46.9962 121.816Z" fill="#0361DE"/>
<path d="M77.206 121.556L62.1012 121.686L62.2263 137.011L77.3311 136.881L77.206 121.556Z" fill="#0361DE"/>
<path d="M107.422 121.296L92.3175 121.426L92.4426 136.751L107.547 136.621L107.422 121.296Z" fill="#0361DE"/>
<path d="M122.402 105.834L107.297 105.964L107.422 121.289L122.527 121.159L122.402 105.834Z" fill="#0361DE"/>
</svg>
