<svg width="111" height="111" viewBox="0 0 111 111" fill="none" xmlns="http://www.w3.org/2000/svg">
<path d="M59.1431 6.24906L52.6675 0L46.7483 6.13373L53.2239 12.3828L59.1431 6.24906Z" fill="#FEE3CF"/>
<path d="M110.953 56.2471L104.478 49.998L98.5587 56.1318L105.034 62.3808L110.953 56.2471Z" fill="#FEE3CF"/>
<path d="M59.855 18.4766L53.3794 12.2275L47.4602 18.3613L53.9358 24.6103L59.855 18.4766Z" fill="#FEE3CF"/>
<path d="M72.0972 18.75L65.6216 12.501L59.7024 18.6347L66.178 24.8838L72.0972 18.75Z" fill="#FEE3CF"/>
<path d="M72.8061 30.9746L66.3306 24.7256L60.4114 30.8593L66.887 37.1084L72.8061 30.9746Z" fill="#FEE3CF"/>
<path d="M85.0482 31.2481L78.5726 24.999L72.6535 31.1328L79.129 37.3818L85.0482 31.2481Z" fill="#FEE3CF"/>
<path d="M85.7572 43.4727L79.2816 37.2236L73.3624 43.3574L79.838 49.6064L85.7572 43.4727Z" fill="#FEE3CF"/>
<path d="M98.0023 43.749L91.5267 37.5L85.6076 43.6337L92.0831 49.8828L98.0023 43.749Z" fill="#FEE3CF"/>
<path d="M98.7113 55.9737L92.2357 49.7246L86.3165 55.8583L92.7921 62.1074L98.7113 55.9737Z" fill="#FEE3CF"/>
<path d="M47.4547 18.3611L40.9791 12.1121L35.06 18.2458L41.5355 24.4948L47.4547 18.3611Z" fill="#FEE3CF"/>
<path d="M99.2651 68.3592L92.7896 62.1101L86.8704 68.2438L93.3459 74.4929L99.2651 68.3592Z" fill="#FEE3CF"/>
<path d="M48.1692 30.5857L41.6936 24.3367L35.7744 30.4704L42.25 36.7195L48.1692 30.5857Z" fill="#FEE3CF"/>
<path d="M60.4087 30.8621L53.9331 24.613L48.0139 30.7468L54.4895 36.9958L60.4087 30.8621Z" fill="#FEE3CF"/>
<path d="M61.1203 43.084L54.6448 36.835L48.7256 42.9687L55.2012 49.2177L61.1203 43.084Z" fill="#FEE3CF"/>
<path d="M73.3598 43.3601L66.8843 37.1111L60.9651 43.2448L67.4407 49.4939L73.3598 43.3601Z" fill="#FEE3CF"/>
<path d="M74.0715 55.5821L67.5959 49.333L61.6768 55.4667L68.1523 61.7158L74.0715 55.5821Z" fill="#FEE3CF"/>
<path d="M86.3139 55.8611L79.8384 49.6121L73.9192 55.7458L80.3948 61.9948L86.3139 55.8611Z" fill="#FEE3CF"/>
<path d="M87.0256 68.0831L80.55 61.834L74.6309 67.9677L81.1065 74.2168L87.0256 68.0831Z" fill="#FEE3CF"/>
<path d="M35.7689 30.4705L29.2933 24.2214L23.3742 30.3552L29.8497 36.6042L35.7689 30.4705Z" fill="#FEE3CF"/>
<path d="M87.5793 80.4685L81.1038 74.2195L75.1846 80.3532L81.6602 86.6023L87.5793 80.4685Z" fill="#FEE3CF"/>
<path d="M36.4808 42.698L30.0052 36.449L24.0861 42.5827L30.5616 48.8318L36.4808 42.698Z" fill="#FEE3CF"/>
<path d="M48.7229 42.9715L42.2473 36.7224L36.3281 42.8561L42.8037 49.1052L48.7229 42.9715Z" fill="#FEE3CF"/>
<path d="M49.4319 55.1961L42.9563 48.947L37.0371 55.0807L43.5127 61.3298L49.4319 55.1961Z" fill="#FEE3CF"/>
<path d="M61.6741 55.4695L55.1985 49.2205L49.2793 55.3542L55.7549 61.6032L61.6741 55.4695Z" fill="#FEE3CF"/>
<path d="M62.383 67.6941L55.9075 61.4451L49.9883 67.5788L56.4639 73.8279L62.383 67.6941Z" fill="#FEE3CF"/>
<path d="M74.628 67.9705L68.1525 61.7214L62.2333 67.8552L68.7089 74.1042L74.628 67.9705Z" fill="#FEE3CF"/>
<path d="M75.3372 80.1951L68.8616 73.946L62.9424 80.0798L69.418 86.3288L75.3372 80.1951Z" fill="#FEE3CF"/>
<path d="M24.0831 42.5799L17.6075 36.3308L11.6884 42.4645L18.1639 48.7136L24.0831 42.5799Z" fill="#FEE3CF"/>
<path d="M75.8935 92.5779L69.418 86.3289L63.4988 92.4626L69.9744 98.7116L75.8935 92.5779Z" fill="#FEE3CF"/>
<path d="M24.795 54.8072L18.3195 48.5581L12.4003 54.6918L18.8759 60.9409L24.795 54.8072Z" fill="#FEE3CF"/>
<path d="M37.0372 55.0808L30.5616 48.8318L24.6425 54.9655L31.118 61.2146L37.0372 55.0808Z" fill="#FEE3CF"/>
<path d="M37.7462 67.3055L31.2706 61.0564L25.3515 67.1901L31.827 73.4392L37.7462 67.3055Z" fill="#FEE3CF"/>
<path d="M49.9883 67.5789L43.5127 61.3298L37.5935 67.4636L44.0691 73.7126L49.9883 67.5789Z" fill="#FEE3CF"/>
<path d="M50.6973 79.8035L44.2217 73.5544L38.3025 79.6882L44.7781 85.9372L50.6973 79.8035Z" fill="#FEE3CF"/>
<path d="M62.9424 80.0796L56.4668 73.8306L50.5476 79.9643L57.0232 86.2133L62.9424 80.0796Z" fill="#FEE3CF"/>
<path d="M12.3948 54.6919L5.91919 48.4429L1.80357e-05 54.5766L6.47559 60.8257L12.3948 54.6919Z" fill="#FEE3CF"/>
<path d="M64.2052 104.69L57.7296 98.4409L51.8104 104.575L58.286 110.824L64.2052 104.69Z" fill="#FEE3CF"/>
<path d="M25.3489 67.1927L18.8733 60.9436L12.9541 67.0773L19.4297 73.3264L25.3489 67.1927Z" fill="#FEE3CF"/>
<path d="M38.2999 79.691L31.8243 73.4419L25.9052 79.5756L32.3807 85.8247L38.2999 79.691Z" fill="#FEE3CF"/>
<path d="M51.254 92.1917L44.7784 85.9426L38.8593 92.0764L45.3348 98.3254L51.254 92.1917Z" fill="#FEE3CF"/>
<path d="M63.6515 92.3045L57.1759 86.0554L51.2567 92.1891L57.7323 98.4382L63.6515 92.3045Z" fill="#FEE3CF"/>
</svg>
