<svg width="50" height="54" viewBox="0 0 50 54" fill="none" xmlns="http://www.w3.org/2000/svg">
<g clip-path="url(#clip0_32_537)">
<path d="M17.0206 53.4492C21.5021 53.4492 25.167 49.4988 25.2009 44.6314L25.2625 35.8137L17.1437 35.8137C12.6622 35.8137 8.99733 39.7641 8.96336 44.6314C8.92938 49.4988 12.5391 53.4492 17.0206 53.4492Z" fill="#0ACF83"/>
<path d="M9.08653 26.9962C9.1205 22.1288 12.7853 18.1785 17.2669 18.1785L25.3856 18.1785L25.2625 35.8137L17.1438 35.8137C12.6622 35.8139 9.05255 31.8635 9.08653 26.9962Z" fill="#A259FF"/>
<path d="M9.20957 9.36093C9.24355 4.49359 12.9084 0.543213 17.3899 0.543213L25.5087 0.543213L25.3856 18.1784L17.2668 18.1784C12.7853 18.1784 9.1756 14.2283 9.20957 9.36093Z" fill="#F24E1E"/>
<path d="M25.5082 0.543213L33.627 0.543213C38.1085 0.543213 41.7182 4.49359 41.6842 9.36093C41.6502 14.2283 37.9854 18.1784 33.5039 18.1784L25.3851 18.1784L25.5082 0.543213Z" fill="#FF7262"/>
<path d="M41.5612 26.9962C41.5272 31.8635 37.8624 35.8139 33.3808 35.8139C28.8993 35.8139 25.2896 31.8635 25.3236 26.9962C25.3576 22.1288 29.0224 18.1785 33.5039 18.1785C37.9854 18.1785 41.5951 22.1288 41.5612 26.9962Z" fill="#1ABCFE"/>
</g>
<defs>
<clipPath id="clip0_32_537">
<rect width="48.7119" height="52.9072" fill="white" transform="matrix(1 -3.26409e-10 -0.00697962 0.999976 1.15247 0.543213)"/>
</clipPath>
</defs>
</svg>
