<svg width="382" height="268" viewBox="0 0 382 268" fill="none" xmlns="http://www.w3.org/2000/svg">
<path d="M23.4825 266.956L8.26009 249.171C11.1578 250.434 15.1692 252.104 19.0657 256.21C22.9622 260.316 23.3157 264.527 23.4825 266.956Z" fill="#3C652F"/>
<path d="M8.25974 249.171L23.4822 266.956C20.5845 265.693 16.573 264.023 12.6765 259.917C8.78004 255.812 8.42655 251.6 8.25974 249.171Z" fill="#3C652F"/>
<path d="M23.4434 266.911C19.8537 264.169 11.8987 256.953 8.41518 249.353" stroke="#2A501E" stroke-width="2" stroke-linecap="round"/>
<path d="M52.6443 266.38L37.4219 248.595C40.3196 249.858 44.331 251.528 48.2275 255.634C52.124 259.74 52.4775 263.951 52.6443 266.38Z" fill="#3C652F"/>
<path d="M37.4221 248.595L52.6445 266.38C49.7468 265.117 45.7354 263.447 41.8389 259.341C37.9424 255.236 37.5889 251.024 37.4221 248.595Z" fill="#3C652F"/>
<path d="M52.6055 266.335C49.0158 263.593 41.0609 256.377 37.5773 248.776" stroke="#2A501E" stroke-width="2" stroke-linecap="round"/>
<path d="M52.5906 266.38L67.813 248.595C64.9153 249.858 60.9039 251.528 57.0074 255.634C53.1108 259.739 52.7574 263.951 52.5906 266.38Z" fill="#3C652F"/>
<path d="M67.813 248.595L52.5906 266.38C55.4883 265.117 59.4997 263.447 63.3962 259.341C67.2927 255.236 67.6462 251.024 67.813 248.595Z" fill="#3C652F"/>
<path d="M52.6298 266.335C56.2196 263.593 64.1745 256.377 67.6581 248.777" stroke="#2A501E" stroke-width="2" stroke-linecap="round"/>
<path d="M22.2531 266.38L37.4756 248.595C34.5779 249.858 30.5664 251.528 26.6699 255.634C22.7734 259.74 22.42 263.951 22.2531 266.38Z" fill="#3C652F"/>
<path d="M37.4754 248.595L22.253 266.38C25.1506 265.118 29.1621 263.447 33.0586 259.341C36.9551 255.236 37.3086 251.024 37.4754 248.595Z" fill="#3C652F"/>
<path d="M22.2922 266.335C25.8819 263.593 33.8368 256.377 37.3204 248.777" stroke="#2A501E" stroke-width="2" stroke-linecap="round"/>
<path d="M84.6678 266.458L69.4454 248.673C72.3431 249.936 76.3545 251.606 80.251 255.712C84.1475 259.817 84.501 264.029 84.6678 266.458Z" fill="#3C652F"/>
<path d="M69.4458 248.673L84.6682 266.458C81.7705 265.195 77.7591 263.525 73.8626 259.419C69.9661 255.313 69.6126 251.102 69.4458 248.673Z" fill="#3C652F"/>
<path d="M84.629 266.413C81.0392 263.671 73.0843 256.455 69.6007 248.854" stroke="#2A501E" stroke-width="2" stroke-linecap="round"/>
<path d="M113.83 265.882L98.6079 248.097C101.506 249.36 105.517 251.03 109.414 255.136C113.31 259.241 113.664 263.453 113.83 265.882Z" fill="#3C652F"/>
<path d="M98.6076 248.097L113.83 265.882C110.932 264.619 106.921 262.948 103.024 258.843C99.1279 254.737 98.7745 250.526 98.6076 248.097Z" fill="#3C652F"/>
<path d="M113.791 265.836C110.202 263.095 102.247 255.878 98.7631 248.278" stroke="#2A501E" stroke-width="2" stroke-linecap="round"/>
<path d="M113.777 265.882L128.999 248.097C126.101 249.36 122.09 251.03 118.193 255.136C114.297 259.241 113.943 263.453 113.777 265.882Z" fill="#3C652F"/>
<path d="M128.999 248.097L113.776 265.882C116.674 264.619 120.685 262.948 124.582 258.843C128.478 254.737 128.832 250.526 128.999 248.097Z" fill="#3C652F"/>
<path d="M113.815 265.836C117.405 263.095 125.36 255.878 128.844 248.278" stroke="#2A501E" stroke-width="2" stroke-linecap="round"/>
<path d="M83.4392 265.882L98.6615 248.097C95.7639 249.36 91.7524 251.03 87.8559 255.136C83.9594 259.241 83.606 263.453 83.4392 265.882Z" fill="#3C652F"/>
<path d="M98.6614 248.097L83.439 265.882C86.3366 264.619 90.3481 262.948 94.2446 258.843C98.1411 254.737 98.4946 250.526 98.6614 248.097Z" fill="#3C652F"/>
<path d="M83.4784 265.837C87.0682 263.095 95.0231 255.879 98.5067 248.278" stroke="#2A501E" stroke-width="2" stroke-linecap="round"/>
<path d="M145.854 265.959L130.631 248.174C133.529 249.437 137.54 251.108 141.437 255.213C145.333 259.319 145.687 263.53 145.854 265.959Z" fill="#3C652F"/>
<path d="M130.631 248.174L145.853 265.959C142.956 264.696 138.944 263.026 135.048 258.92C131.151 254.815 130.798 250.603 130.631 248.174Z" fill="#3C652F"/>
<path d="M145.814 265.914C142.224 263.172 134.269 255.956 130.786 248.356" stroke="#2A501E" stroke-width="2" stroke-linecap="round"/>
<path d="M175.015 265.383L159.793 247.598C162.69 248.861 166.702 250.531 170.598 254.637C174.495 258.742 174.848 262.954 175.015 265.383Z" fill="#3C652F"/>
<path d="M159.793 247.598L175.015 265.383C172.117 264.12 168.106 262.45 164.209 258.344C160.313 254.239 159.96 250.027 159.793 247.598Z" fill="#3C652F"/>
<path d="M174.976 265.338C171.386 262.596 163.431 255.38 159.948 247.779" stroke="#2A501E" stroke-width="2" stroke-linecap="round"/>
<path d="M174.962 265.383L190.184 247.598C187.287 248.861 183.275 250.531 179.379 254.637C175.482 258.743 175.129 262.954 174.962 265.383Z" fill="#3C652F"/>
<path d="M190.185 247.598L174.962 265.383C177.86 264.12 181.871 262.45 185.768 258.344C189.664 254.239 190.018 250.027 190.185 247.598Z" fill="#3C652F"/>
<path d="M175 265.338C178.59 262.596 186.545 255.38 190.029 247.78" stroke="#2A501E" stroke-width="2" stroke-linecap="round"/>
<path d="M144.624 265.383L159.847 247.598C156.949 248.861 152.938 250.531 149.041 254.637C145.145 258.743 144.791 262.954 144.624 265.383Z" fill="#3C652F"/>
<path d="M159.846 247.598L144.624 265.383C147.521 264.12 151.533 262.45 155.429 258.344C159.326 254.239 159.679 250.027 159.846 247.598Z" fill="#3C652F"/>
<path d="M144.663 265.338C148.253 262.596 156.208 255.38 159.691 247.78" stroke="#2A501E" stroke-width="2" stroke-linecap="round"/>
<path d="M207.038 265.461L191.815 247.676C194.713 248.939 198.724 250.609 202.621 254.715C206.517 258.82 206.871 263.032 207.038 265.461Z" fill="#3C652F"/>
<path d="M191.815 247.676L207.038 265.461C204.14 264.198 200.129 262.528 196.232 258.422C192.336 254.317 191.982 250.105 191.815 247.676Z" fill="#3C652F"/>
<path d="M206.999 265.416C203.409 262.674 195.454 255.458 191.971 247.858" stroke="#2A501E" stroke-width="2" stroke-linecap="round"/>
<path d="M236.2 264.885L220.978 247.099C223.876 248.362 227.887 250.033 231.784 254.138C235.68 258.244 236.034 262.455 236.2 264.885Z" fill="#3C652F"/>
<path d="M220.978 247.1L236.2 264.885C233.302 263.622 229.291 261.951 225.394 257.846C221.498 253.74 221.144 249.529 220.978 247.1Z" fill="#3C652F"/>
<path d="M236.161 264.84C232.571 262.098 224.616 254.881 221.133 247.281" stroke="#2A501E" stroke-width="2" stroke-linecap="round"/>
<path d="M236.146 264.885L251.369 247.099C248.471 248.362 244.46 250.033 240.563 254.138C236.667 258.244 236.313 262.455 236.146 264.885Z" fill="#3C652F"/>
<path d="M251.369 247.1L236.147 264.885C239.045 263.622 243.056 261.951 246.953 257.846C250.849 253.74 251.203 249.529 251.369 247.1Z" fill="#3C652F"/>
<path d="M236.186 264.84C239.776 262.098 247.731 254.881 251.214 247.281" stroke="#2A501E" stroke-width="2" stroke-linecap="round"/>
<path d="M205.809 264.884L221.031 247.099C218.134 248.362 214.122 250.033 210.226 254.138C206.329 258.244 205.976 262.455 205.809 264.884Z" fill="#3C652F"/>
<path d="M221.032 247.1L205.809 264.885C208.707 263.622 212.718 261.951 216.615 257.846C220.511 253.74 220.865 249.529 221.032 247.1Z" fill="#3C652F"/>
<path d="M205.849 264.84C209.438 262.098 217.393 254.881 220.877 247.281" stroke="#2A501E" stroke-width="2" stroke-linecap="round"/>
<path d="M268.223 264.963L253.001 247.178C255.899 248.441 259.91 250.111 263.807 254.217C267.703 258.322 268.057 262.534 268.223 264.963Z" fill="#3C652F"/>
<path d="M253.001 247.178L268.224 264.963C265.326 263.7 261.315 262.03 257.418 257.924C253.522 253.818 253.168 249.607 253.001 247.178Z" fill="#3C652F"/>
<path d="M268.185 264.918C264.595 262.176 256.64 254.96 253.156 247.359" stroke="#2A501E" stroke-width="2" stroke-linecap="round"/>
<path d="M297.386 264.387L282.163 246.602C285.061 247.864 289.072 249.535 292.969 253.641C296.865 257.746 297.219 261.958 297.386 264.387Z" fill="#3C652F"/>
<path d="M282.164 246.602L297.386 264.387C294.488 263.124 290.477 261.454 286.58 257.348C282.684 253.242 282.33 249.031 282.164 246.602Z" fill="#3C652F"/>
<path d="M297.347 264.342C293.757 261.6 285.802 254.384 282.319 246.783" stroke="#2A501E" stroke-width="2" stroke-linecap="round"/>
<path d="M297.332 264.387L312.555 246.601C309.657 247.864 305.646 249.535 301.749 253.64C297.853 257.746 297.499 261.957 297.332 264.387Z" fill="#3C652F"/>
<path d="M312.555 246.602L297.333 264.387C300.23 263.124 304.242 261.454 308.138 257.348C312.035 253.242 312.388 249.031 312.555 246.602Z" fill="#3C652F"/>
<path d="M297.372 264.341C300.961 261.6 308.916 254.383 312.4 246.783" stroke="#2A501E" stroke-width="2" stroke-linecap="round"/>
<path d="M266.994 264.387L282.217 246.601C279.319 247.864 275.308 249.535 271.411 253.64C267.515 257.746 267.161 261.957 266.994 264.387Z" fill="#3C652F"/>
<path d="M282.217 246.602L266.995 264.387C269.892 263.124 273.904 261.454 277.8 257.348C281.697 253.242 282.05 249.031 282.217 246.602Z" fill="#3C652F"/>
<path d="M267.034 264.342C270.624 261.6 278.579 254.384 282.062 246.783" stroke="#2A501E" stroke-width="2" stroke-linecap="round"/>
<path d="M329.409 264.464L314.187 246.679C317.084 247.942 321.096 249.613 324.992 253.718C328.889 257.824 329.242 262.035 329.409 264.464Z" fill="#3C652F"/>
<path d="M314.187 246.679L329.409 264.464C326.511 263.202 322.5 261.531 318.604 257.426C314.707 253.32 314.354 249.109 314.187 246.679Z" fill="#3C652F"/>
<path d="M329.37 264.419C325.78 261.677 317.825 254.461 314.342 246.861" stroke="#2A501E" stroke-width="2" stroke-linecap="round"/>
<path d="M358.572 263.888L343.349 246.103C346.247 247.366 350.258 249.036 354.155 253.142C358.051 257.247 358.405 261.459 358.572 263.888Z" fill="#3C652F"/>
<path d="M343.349 246.103L358.572 263.888C355.674 262.625 351.663 260.955 347.766 256.849C343.87 252.743 343.516 248.532 343.349 246.103Z" fill="#3C652F"/>
<path d="M358.533 263.843C354.943 261.101 346.988 253.885 343.504 246.284" stroke="#2A501E" stroke-width="2" stroke-linecap="round"/>
<path d="M358.518 263.888L373.74 246.103C370.843 247.366 366.831 249.036 362.935 253.142C359.038 257.247 358.685 261.459 358.518 263.888Z" fill="#3C652F"/>
<path d="M373.741 246.103L358.518 263.888C361.416 262.625 365.427 260.955 369.324 256.849C373.22 252.743 373.574 248.532 373.741 246.103Z" fill="#3C652F"/>
<path d="M358.557 263.843C362.147 261.101 370.102 253.885 373.585 246.284" stroke="#2A501E" stroke-width="2" stroke-linecap="round"/>
<path d="M328.18 263.888L343.403 246.103C340.505 247.366 336.493 249.036 332.597 253.142C328.7 257.247 328.347 261.459 328.18 263.888Z" fill="#3C652F"/>
<path d="M343.403 246.103L328.18 263.888C331.078 262.625 335.09 260.955 338.986 256.849C342.883 252.743 343.236 248.532 343.403 246.103Z" fill="#3C652F"/>
<path d="M328.219 263.843C331.809 261.101 339.764 253.885 343.248 246.284" stroke="#2A501E" stroke-width="2" stroke-linecap="round"/>
<path d="M357.521 177.728C353.902 164.027 345.927 154.312 335.059 150.364C324.19 146.416 311.789 148.734 300.126 156.883C297.869 158.465 295.723 160.198 293.703 162.069L276.259 113.556C272.883 104.224 264.833 97.3308 255.043 95.3892C253.839 95.1493 252.619 94.989 251.393 94.9092L252.468 95.3766L251.158 96.7979C251.953 96.8421 252.741 96.9242 253.517 97.0442C263.134 98.5185 271.169 105.099 274.459 114.194L285.868 145.923L285.467 145.689L237.256 226.367H129.068C129.665 224.971 130.238 223.537 130.772 222.084C137.958 202.559 137.367 182.781 130.588 168.663L135.58 162.599L134.104 161.399L129.653 166.813C125.5 159.112 119.388 153.314 111.611 150.484C89.467 142.449 62.0447 161.481 50.4704 192.926C45.7962 205.629 44.4162 218.446 45.8916 229.74C48.0665 246.391 56.4484 259.732 69.638 264.526C70.7242 264.919 71.8327 265.248 72.9577 265.512C73.5936 265.676 74.2296 265.808 74.91 265.916C76.668 266.217 78.449 266.367 80.233 266.364C82.8009 266.359 85.3603 266.071 87.8644 265.505C95.2287 263.869 102.568 259.946 109.22 254.186C116.749 247.673 123.408 238.811 128.235 228.287H238.343L286.497 147.698L292.221 163.522C284.278 171.297 277.791 181.512 273.518 193.128C268.049 207.991 267.05 223.006 269.842 235.589C272.933 249.53 280.653 260.483 292.1 264.968L292.463 265.107L292.825 265.24C294.939 265.993 297.129 266.514 299.356 266.794C300.717 266.966 302.087 267.052 303.458 267.053C304.947 267.051 306.434 266.952 307.91 266.756C310.611 266.405 313.268 265.769 315.834 264.861C331.58 259.308 346.563 243.7 354.373 222.476C359.988 207.189 361.114 191.296 357.521 177.728ZM129.265 170.274C135.472 183.861 135.853 202.761 128.979 221.44C128.343 223.12 127.707 224.769 126.988 226.373H83.0502L129.265 170.274ZM70.2867 262.751C49.1349 255.07 41.0329 224.042 52.2574 193.583C61.7522 167.779 82.0963 150.566 100.959 150.566C104.366 150.556 107.748 151.144 110.949 152.303C118.517 155.051 124.413 160.786 128.355 168.417L79.0246 228.262H126.13C113.741 254.603 89.8104 269.839 70.2867 262.751ZM352.573 221.819C343.74 245.822 325.577 262.486 307.885 264.886C306.435 265.087 304.973 265.189 303.509 265.189C302.154 265.191 300.801 265.1 299.458 264.918C297.405 264.641 295.388 264.145 293.442 263.44C272.131 255.702 263.985 224.44 275.279 193.76C279.337 182.718 285.455 172.978 292.895 165.473L306.485 203.273L308.285 202.641L294.396 164.014C296.532 161.991 298.814 160.127 301.226 158.437C308.858 153.112 316.762 150.389 324.292 150.389C327.74 150.379 331.163 150.974 334.404 152.145C344.668 155.872 352.21 165.126 355.676 178.208C359.168 191.41 358.068 206.899 352.573 221.819Z" fill="#002349"/>
<path d="M145.163 119.415H115.197V132.168H145.163V119.415Z" fill="#C5ADC5"/>
<path d="M137.5 78.2139C137.5 78.2139 109.277 92.4518 125.544 117.144C125.544 117.144 140.807 126.739 134.804 142.897C128.8 159.055 139.084 176.913 152.782 184.588C152.782 184.588 163.059 195.642 157.921 212.653C152.782 229.664 158.092 227.339 158.092 227.339H225.84L160.471 121.635L164.751 103.778L137.5 78.2139Z" fill="#002349"/>
<path d="M214.552 210.171L234.61 130.662L162.741 111.206L152.776 115.824L214.552 210.171Z" fill="#002349"/>
<path d="M242.413 98.933L240.505 97.6697V114.504H242.413V98.933Z" fill="#002349"/>
<path d="M280.31 130.864H234.521V132.759H280.31V130.864Z" fill="#002349"/>
<path d="M218.253 236.398L212.155 229.481L203.08 233.359L200.536 228.268L199.582 226.373L199.232 225.678L188.739 226.367L185.515 226.582L185.794 227.314L186.151 228.262L192.589 246.054L202.596 240.845L218.253 236.398ZM202.634 238.868L193.909 243.352L188.217 228.306L188.783 228.268L198.056 227.636L198.367 228.268L202.183 235.804L211.671 231.761L214.851 235.4L202.634 238.868Z" fill="#002349"/>
<path d="M220.413 236.647L186.7 248.755L188.735 254.341L222.448 242.233L220.413 236.647Z" fill="#002349"/>
<path d="M116.25 86.5016H55.8025V88.3966H116.25V86.5016Z" fill="#002349"/>
<path d="M107.607 106.955H73.0688V108.85H107.607V106.955Z" fill="#002349"/>
<path d="M210.743 67.7281L203.855 37.4078L201.992 37.8247L209.057 68.8841L239.011 87.6448L232.187 95.6102L196.084 82.7746L190.996 62.1315L187.594 48.3421L185.737 48.7969L188.917 61.6325C172.159 83.3368 142.658 74.3354 136.362 72.0867L187.238 34.818L186.106 33.2893L132.082 72.8637L166.76 108.004L193.362 79.6415L194.5 84.259L232.804 97.8463L241.873 87.2342L210.743 67.7281ZM166.703 105.212L135.948 74.0512C142.155 76.2333 148.648 77.5099 155.224 77.8412C156.072 77.8791 156.92 77.8981 157.768 77.8981C171.008 77.8981 181.89 73.1353 189.483 64.0013L192.783 77.3864L166.703 105.212Z" fill="#002349"/>
<path d="M278.936 108.244L289.607 137.225H330.06L343.625 109.627L278.936 108.244ZM306.505 110.732L306.066 111.074L308.845 114.598L296.978 123.884L289.213 110.36L306.505 110.732ZM313.201 135.33H301.57L303.058 134.483L297.932 125.552L310.015 116.076L319.287 127.826L312.813 134.995L313.201 135.33ZM320.483 129.323L325.227 135.33H315.052L320.483 129.323ZM281.69 110.202L288.45 110.347L287.369 110.979L295.464 125.09L289.69 129.613L290.873 131.098L296.425 126.758L301.353 135.349H290.943L281.69 110.202ZM328.871 135.33H325.691L326.925 134.37L321.806 127.889L331.504 117.087L330.079 115.824L320.578 126.354L311.522 114.889L312.794 113.903L311.618 112.413L310.346 113.398L308.247 110.745L340.572 111.434L328.871 135.33Z" fill="#C5ADC5"/>
<path d="M167.339 12.7981C150.156 -4.26602 122.301 -4.26602 105.118 12.7981L88.3987 29.4048L136.61 77.2919L137.958 75.9528L101.569 39.8084L125.284 21.073C130.937 16.6224 132.142 8.57724 128.038 2.68497C130.74 2.15752 133.487 1.89307 136.241 1.89538C147.404 1.86411 158.115 6.26733 165.991 14.1246L186.036 34.0476L187.385 32.7084L167.339 12.7981ZM128.489 11.5979C128.176 14.7397 126.59 17.6198 124.095 19.5759L100.215 38.4566L91.0951 29.4048L106.466 14.1246C111.843 8.76402 118.591 4.96362 125.983 3.13345C127.906 5.51816 128.806 8.55896 128.489 11.5979Z" fill="#002349"/>
<path d="M198.513 136.334L182.209 159.229L183.772 160.327L200.077 137.432L198.513 136.334Z" fill="white"/>
<path d="M232.804 133.593C209.185 133.34 173.323 133.113 171.339 133.536C171.483 133.499 171.613 133.422 171.714 133.315L170.366 131.976C170.786 131.559 171.066 131.281 202.164 131.452C217.35 131.534 232.689 131.698 232.81 131.698L232.804 133.593Z" fill="white"/>
<path d="M215.01 211.649L159.148 123.846L165.806 118.704L166.977 120.201L161.685 124.288L216.625 210.638L215.01 211.649Z" fill="white"/>
<path d="M134.492 153.661L133.856 151.874C142.664 148.835 148.712 143.731 149.66 138.564C150.124 135.949 149.164 133.587 146.881 131.73C138.658 125.046 143.637 110.253 147.332 104.119C147.679 103.546 147.738 102.846 147.491 102.224C145.901 97.1707 132.095 90.1149 126.905 87.8156L127.688 86.0848C128.482 86.4386 147.141 94.7956 149.31 101.656C149.715 102.786 149.591 104.036 148.973 105.067C144.737 112.072 141.539 124.907 148.089 130.239C150.9 132.519 152.121 135.589 151.536 138.874C150.467 144.742 143.936 150.396 134.492 153.661Z" fill="#002349"/>
<path d="M219.271 228.104C219.182 227.965 210.482 214.156 204.161 211.017C202.316 210.101 201.852 210.253 201.833 210.265C201.56 210.714 202.234 213.304 202.723 215.199C203.33 217.406 203.822 219.643 204.199 221.901C204.389 223.164 204.479 224.63 203.416 225.23C201.979 226.038 200.071 224.465 196.268 221.339C191.963 217.808 186.093 212.963 179.734 211.074C177.152 210.31 175.282 210.493 174.163 211.623C171.275 214.542 173.266 223.259 174.277 226.373L172.458 226.954C172.293 226.455 168.522 214.63 172.795 210.297C174.449 208.623 176.967 208.276 180.281 209.261C186.99 211.257 193.057 216.241 197.483 219.879C199.296 221.37 201.509 223.189 202.399 223.493C202.424 223.057 202.396 222.62 202.316 222.191C201.945 219.996 201.464 217.82 200.873 215.673C199.925 212.021 199.359 209.823 200.663 208.775C201.757 207.897 203.474 208.56 205.013 209.324C211.817 212.704 220.524 226.518 220.912 227.106L219.271 228.104Z" fill="#002349"/>
<path d="M219.29 189.572C217.382 188.207 200.695 176.079 201.566 169.952C201.7 169.017 202.278 167.76 204.263 167.053C205.452 166.629 206.717 166.2 208.021 165.758C213.681 163.863 222.228 160.938 222.572 158.557C222.661 157.925 221.936 157.293 221.3 156.845C217.866 154.457 216.314 150.989 217.338 148.001C217.974 146.214 220.467 142.108 230.527 142.582L230.432 144.477C224.352 144.192 220.13 145.74 219.144 148.62C218.4 150.781 219.672 153.402 222.394 155.291C223.939 156.365 224.626 157.552 224.448 158.822C223.977 162.113 217.878 164.412 208.619 167.552C207.347 167.994 206.075 168.417 204.892 168.815C203.709 169.213 203.499 169.807 203.442 170.198C202.908 173.988 213.554 183.122 220.39 188.012L219.29 189.572Z" fill="#002349"/>
<path d="M180.294 127.333C179.244 127.358 178.21 127.08 177.317 126.531C173.095 123.852 174.773 115.584 174.875 115.236L176.739 115.622C176.312 117.662 175.759 123.297 178.341 124.933C179.988 125.975 183.702 125.905 192.059 119.683L193.203 121.199C187.696 125.299 183.429 127.333 180.294 127.333Z" fill="#002349"/>
<path d="M240.957 88.327L238.915 87.4426L238.833 87.5626L237.72 89.1608L233.472 95.2943L234.413 95.926L240.505 99.9624L242.413 101.226L246.916 104.207L253.517 97.0567L255.043 95.4017L255.679 94.7132L240.957 88.327ZM252.468 95.3764L251.157 96.7977L246.617 101.718L242.413 98.9328L240.505 97.6694L236.149 94.7827L239.233 90.361L239.602 89.824H239.666L251.399 94.8774L252.468 95.3764Z" fill="#002349"/>
<path d="M105.845 267.425C15.2001 267.425 14.2496 266.737 13.7876 266.408L14.6054 264.785C14.5622 264.753 14.5158 264.728 14.4673 264.709C19.5279 266.206 244.881 265.341 363.346 264.646V266.541C362.48 266.541 275.728 267.04 189.809 267.287C155.585 267.375 128.025 267.425 105.845 267.425Z" fill="#002349"/>
<path d="M201.09 9.82276C201.09 9.82276 199.346 9.75067 198.482 9.82452V9.82276C198.482 9.82276 191.117 8.76331 198.482 9.82452C187.052 10.8009 187.467 16.9182 185.724 19.5144C183.982 22.1106 184.847 23.4371 185.724 26.4628C186.602 29.4885 183.969 28.6358 181.782 30.3792C179.594 32.1226 176.738 34.5167 180.681 36.2601L202.603 40.1764C203.033 39.3851 203.34 38.533 203.512 37.6497C203.658 37.694 203.798 37.7382 203.944 37.7698C204.524 37.9283 205.119 38.0236 205.719 38.054H206.005C207.503 38.078 208.95 37.5179 210.037 36.4938C213.694 33.1207 213.496 26.9176 212.835 22.7359H216.651C216.651 22.7359 221.918 9.16582 201.09 9.82276ZM208.739 35.161C207.954 35.9103 206.889 36.2996 205.801 36.2348C205.014 36.1889 204.239 36.0183 203.506 35.7295C203.349 35.0222 202.957 34.388 202.393 33.9292C199.76 31.7499 197.572 30.0065 199.321 28.2441C201.07 26.4818 200.637 24.3278 199.321 22.5591L199.264 22.5275C198.97 22.0996 199.021 21.5253 199.386 21.1554C199.751 20.7854 200.328 20.7225 200.765 21.0052L203.467 22.7928H210.883C211.531 26.5891 211.843 32.2995 208.739 35.161Z" fill="black"/>
</svg>
