<svg width="85" height="85" viewBox="0 0 85 85" fill="none" xmlns="http://www.w3.org/2000/svg">
<path d="M84.5373 42.1183C84.5373 42.2902 84.5373 42.4621 84.3654 42.634L42.763 84.2365C42.5911 84.4084 42.4191 84.4084 42.2472 84.4084C42.0752 84.4084 41.9034 84.4084 41.7314 84.2365L0.128931 42.634C-0.0429796 42.4621 -0.0429796 41.9464 0.128931 41.7745L41.7314 0.172003C41.9033 8.97211e-05 42.0752 8.20842e-05 42.2472 8.20767e-05C42.4191 8.20691e-05 42.5911 8.9691e-05 42.763 0.172003L77.3171 34.7261C77.489 34.898 77.489 35.4138 77.3171 35.5857L42.763 70.1398C42.5911 70.3117 42.0753 70.3117 41.9034 70.1398L14.3976 42.634C14.2257 42.4621 14.2257 41.9464 14.3976 41.7745L41.9034 14.2687C42.0753 14.0968 42.5911 14.0968 42.763 14.2687L63.3923 34.898C63.5642 35.07 63.5642 35.5857 63.3923 35.7576L56.5159 42.634L42.9348 56.215C42.7629 56.3869 42.2472 56.3869 42.0753 56.215L28.4943 42.634C28.3224 42.4621 28.3224 41.9464 28.4943 41.7745L42.0753 28.1935C42.2472 28.0216 42.7629 28.0216 42.9348 28.1935L56.172 41.4307L62.1889 35.4138L42.591 15.8159L16.1167 42.2902L42.591 68.7645L76.2856 35.0699L42.591 1.37537L1.84804 42.1183L42.591 82.8612L83.6778 41.7745C83.8497 41.6026 84.3654 41.6026 84.5373 41.7745C84.3654 41.7745 84.5373 41.9464 84.5373 42.1183ZM42.2472 54.8397L54.9686 42.1183L42.2472 29.3969L29.5258 42.1183L42.2472 54.8397Z" fill="#424242" fill-opacity="0.5"/>
</svg>
