<svg width="145" height="133" viewBox="0 0 145 133" fill="none" xmlns="http://www.w3.org/2000/svg">
<path d="M145 82.5413L73.0724 19.6763C70.9737 19.843 68.8751 20.1765 66.7764 20.6768L144.046 88.2108C144.428 86.2098 144.809 84.3755 145 82.5413Z" fill="#C4D9FF" fill-opacity="0.5"/>
<path d="M126.493 35.851C120.578 30.6817 113.71 26.6797 106.078 23.845L140.42 53.8601C136.986 47.0233 132.407 41.0203 126.493 35.851Z" fill="#C4D9FF" fill-opacity="0.5"/>
<path d="M34.5326 116.058C40.4471 121.227 47.3155 125.229 54.9471 128.064L20.605 98.0491C24.0392 104.886 28.6181 110.889 34.5326 116.058Z" fill="#C4D9FF" fill-opacity="0.5"/>
<path d="M118.861 121.728L28.0453 42.3545C27.0914 43.5217 25.9466 44.8558 24.9927 46.1898L114.282 124.229C115.999 123.562 117.526 122.728 118.861 121.728Z" fill="#C4D9FF" fill-opacity="0.5"/>
<path d="M94.2494 131.399L16.9797 63.8652C16.5981 65.6995 16.2165 67.5337 15.835 69.368L87.9534 132.4C90.052 132.233 92.1507 131.9 94.2494 131.399Z" fill="#C4D9FF" fill-opacity="0.5"/>
<path d="M135.841 105.553L46.5517 27.5134C45.0254 28.3472 43.4991 29.1809 42.1636 30.1814L132.979 109.555C133.933 108.221 134.887 106.887 135.841 105.553Z" fill="#C4D9FF" fill-opacity="0.5"/>
<path d="M129.165 62.865L57.237 0C55.1383 0.166751 53.0396 0.500237 50.9409 1.00049L128.02 68.5345C128.401 66.7003 128.783 64.866 129.165 62.865Z" fill="#424242" fill-opacity="0.5"/>
<path d="M110.467 16.3418C104.553 11.1725 97.6843 7.17046 90.0527 4.33569L124.395 34.3508C121.151 27.514 116.382 21.511 110.467 16.3418Z" fill="#424242" fill-opacity="0.5"/>
<path d="M18.6972 96.5489C24.6116 101.718 31.48 105.72 39.1116 108.555L4.76953 78.5398C8.01295 85.3766 12.7827 91.3796 18.6972 96.5489Z" fill="#424242" fill-opacity="0.5"/>
<path d="M102.836 102.218L12.0199 22.8447C11.066 24.012 9.92123 25.346 8.96729 26.68L98.2567 104.719C99.9738 104.052 101.5 103.219 102.836 102.218Z" fill="#424242" fill-opacity="0.5"/>
<path d="M78.4145 111.89L1.14474 44.356C0.763158 46.1902 0.381579 48.0245 0 49.8587L71.9276 112.724C74.0263 112.557 76.3158 112.39 78.4145 111.89Z" fill="#424242" fill-opacity="0.5"/>
<path d="M120.006 86.0435L30.7168 8.00415C29.1905 8.8379 27.6641 9.67164 26.3286 10.6721L117.144 90.0455C118.098 88.7115 119.052 87.3775 120.006 86.0435Z" fill="#424242" fill-opacity="0.5"/>
</svg>
