<svg width="156" height="396" viewBox="0 0 156 396" fill="none" xmlns="http://www.w3.org/2000/svg">
<circle cx="8" cy="388" r="8" transform="rotate(-90 8 388)" fill="#C5BAFF" fill-opacity="0.3"/>
<circle cx="8" cy="368" r="8" transform="rotate(-90 8 368)" fill="#C5BAFF" fill-opacity="0.3"/>
<circle cx="8" cy="348" r="8" transform="rotate(-90 8 348)" fill="#C5BAFF" fill-opacity="0.3"/>
<circle cx="8" cy="328" r="8" transform="rotate(-90 8 328)" fill="#C5BAFF" fill-opacity="0.3"/>
<circle cx="8" cy="308" r="8" transform="rotate(-90 8 308)" fill="#C5BAFF" fill-opacity="0.3"/>
<circle cx="8" cy="288" r="8" transform="rotate(-90 8 288)" fill="#C5BAFF" fill-opacity="0.3"/>
<circle cx="8" cy="268" r="8" transform="rotate(-90 8 268)" fill="#C5BAFF" fill-opacity="0.3"/>
<circle cx="8" cy="248" r="8" transform="rotate(-90 8 248)" fill="#C5BAFF" fill-opacity="0.3"/>
<circle cx="8" cy="228" r="8" transform="rotate(-90 8 228)" fill="#C5BAFF" fill-opacity="0.3"/>
<circle cx="8" cy="208" r="8" transform="rotate(-90 8 208)" fill="#C5BAFF" fill-opacity="0.3"/>
<circle cx="8" cy="188" r="8" transform="rotate(-90 8 188)" fill="#C5BAFF" fill-opacity="0.3"/>
<circle cx="8" cy="168" r="8" transform="rotate(-90 8 168)" fill="#C5BAFF" fill-opacity="0.3"/>
<circle cx="8" cy="148" r="8" transform="rotate(-90 8 148)" fill="#C5BAFF" fill-opacity="0.3"/>
<circle cx="8" cy="128" r="8" transform="rotate(-90 8 128)" fill="#C5BAFF" fill-opacity="0.3"/>
<circle cx="8" cy="108" r="8" transform="rotate(-90 8 108)" fill="#C5BAFF" fill-opacity="0.3"/>
<circle cx="8" cy="88" r="8" transform="rotate(-90 8 88)" fill="#C5BAFF" fill-opacity="0.3"/>
<circle cx="8" cy="68" r="8" transform="rotate(-90 8 68)" fill="#C5BAFF" fill-opacity="0.3"/>
<circle cx="8" cy="48" r="8" transform="rotate(-90 8 48)" fill="#C5BAFF" fill-opacity="0.3"/>
<circle cx="8" cy="28" r="8" transform="rotate(-90 8 28)" fill="#C5BAFF" fill-opacity="0.3"/>
<circle cx="8" cy="8" r="8" transform="rotate(-90 8 8)" fill="#C5BAFF" fill-opacity="0.3"/>
<circle cx="28" cy="388" r="8" transform="rotate(-90 28 388)" fill="#C5BAFF" fill-opacity="0.3"/>
<circle cx="28" cy="368" r="8" transform="rotate(-90 28 368)" fill="#C5BAFF" fill-opacity="0.3"/>
<circle cx="28" cy="348" r="8" transform="rotate(-90 28 348)" fill="#C5BAFF" fill-opacity="0.3"/>
<circle cx="28" cy="328" r="8" transform="rotate(-90 28 328)" fill="#C5BAFF" fill-opacity="0.3"/>
<circle cx="28" cy="308" r="8" transform="rotate(-90 28 308)" fill="#C5BAFF" fill-opacity="0.3"/>
<circle cx="28" cy="288" r="8" transform="rotate(-90 28 288)" fill="#C5BAFF" fill-opacity="0.3"/>
<circle cx="28" cy="268" r="8" transform="rotate(-90 28 268)" fill="#C5BAFF" fill-opacity="0.3"/>
<circle cx="28" cy="248" r="8" transform="rotate(-90 28 248)" fill="#C5BAFF" fill-opacity="0.3"/>
<circle cx="28" cy="228" r="8" transform="rotate(-90 28 228)" fill="#C5BAFF" fill-opacity="0.3"/>
<circle cx="28" cy="208" r="8" transform="rotate(-90 28 208)" fill="#C5BAFF" fill-opacity="0.3"/>
<circle cx="28" cy="188" r="8" transform="rotate(-90 28 188)" fill="#C5BAFF" fill-opacity="0.3"/>
<circle cx="28" cy="168" r="8" transform="rotate(-90 28 168)" fill="#C5BAFF" fill-opacity="0.3"/>
<circle cx="28" cy="148" r="8" transform="rotate(-90 28 148)" fill="#C5BAFF" fill-opacity="0.3"/>
<circle cx="28" cy="128" r="8" transform="rotate(-90 28 128)" fill="#C5BAFF" fill-opacity="0.3"/>
<circle cx="28" cy="108" r="8" transform="rotate(-90 28 108)" fill="#C5BAFF" fill-opacity="0.3"/>
<circle cx="28" cy="88" r="8" transform="rotate(-90 28 88)" fill="#C5BAFF" fill-opacity="0.3"/>
<circle cx="28" cy="68" r="8" transform="rotate(-90 28 68)" fill="#C5BAFF" fill-opacity="0.3"/>
<circle cx="28" cy="48" r="8" transform="rotate(-90 28 48)" fill="#C5BAFF" fill-opacity="0.3"/>
<circle cx="28" cy="28" r="8" transform="rotate(-90 28 28)" fill="#C5BAFF" fill-opacity="0.3"/>
<circle cx="28" cy="8" r="8" transform="rotate(-90 28 8)" fill="#C5BAFF" fill-opacity="0.3"/>
<circle cx="48" cy="388" r="8" transform="rotate(-90 48 388)" fill="#C5BAFF" fill-opacity="0.3"/>
<circle cx="48" cy="368" r="8" transform="rotate(-90 48 368)" fill="#C5BAFF" fill-opacity="0.3"/>
<circle cx="48" cy="348" r="8" transform="rotate(-90 48 348)" fill="#C5BAFF" fill-opacity="0.3"/>
<circle cx="48" cy="328" r="8" transform="rotate(-90 48 328)" fill="#C5BAFF" fill-opacity="0.3"/>
<circle cx="48" cy="308" r="8" transform="rotate(-90 48 308)" fill="#C5BAFF" fill-opacity="0.3"/>
<circle cx="48" cy="288" r="8" transform="rotate(-90 48 288)" fill="#C5BAFF" fill-opacity="0.3"/>
<circle cx="48" cy="268" r="8" transform="rotate(-90 48 268)" fill="#C5BAFF" fill-opacity="0.3"/>
<circle cx="48" cy="248" r="8" transform="rotate(-90 48 248)" fill="#C5BAFF" fill-opacity="0.3"/>
<circle cx="48" cy="228" r="8" transform="rotate(-90 48 228)" fill="#C5BAFF" fill-opacity="0.3"/>
<circle cx="48" cy="208" r="8" transform="rotate(-90 48 208)" fill="#C5BAFF" fill-opacity="0.3"/>
<circle cx="48" cy="188" r="8" transform="rotate(-90 48 188)" fill="#C5BAFF" fill-opacity="0.3"/>
<circle cx="48" cy="168" r="8" transform="rotate(-90 48 168)" fill="#C5BAFF" fill-opacity="0.3"/>
<circle cx="48" cy="148" r="8" transform="rotate(-90 48 148)" fill="#C5BAFF" fill-opacity="0.3"/>
<circle cx="48" cy="128" r="8" transform="rotate(-90 48 128)" fill="#C5BAFF" fill-opacity="0.3"/>
<circle cx="48" cy="108" r="8" transform="rotate(-90 48 108)" fill="#C5BAFF" fill-opacity="0.3"/>
<circle cx="48" cy="88" r="8" transform="rotate(-90 48 88)" fill="#C5BAFF" fill-opacity="0.3"/>
<circle cx="48" cy="68" r="8" transform="rotate(-90 48 68)" fill="#C5BAFF" fill-opacity="0.3"/>
<circle cx="48" cy="48" r="8" transform="rotate(-90 48 48)" fill="#C5BAFF" fill-opacity="0.3"/>
<circle cx="48" cy="28" r="8" transform="rotate(-90 48 28)" fill="#C5BAFF" fill-opacity="0.3"/>
<circle cx="48" cy="8" r="8" transform="rotate(-90 48 8)" fill="#C5BAFF" fill-opacity="0.3"/>
<circle cx="68" cy="388" r="8" transform="rotate(-90 68 388)" fill="#C5BAFF" fill-opacity="0.3"/>
<circle cx="68" cy="368" r="8" transform="rotate(-90 68 368)" fill="#C5BAFF" fill-opacity="0.3"/>
<circle cx="68" cy="348" r="8" transform="rotate(-90 68 348)" fill="#C5BAFF" fill-opacity="0.3"/>
<circle cx="68" cy="328" r="8" transform="rotate(-90 68 328)" fill="#C5BAFF" fill-opacity="0.3"/>
<circle cx="68" cy="308" r="8" transform="rotate(-90 68 308)" fill="#C5BAFF" fill-opacity="0.3"/>
<circle cx="68" cy="288" r="8" transform="rotate(-90 68 288)" fill="#C5BAFF" fill-opacity="0.3"/>
<circle cx="68" cy="268" r="8" transform="rotate(-90 68 268)" fill="#C5BAFF" fill-opacity="0.3"/>
<circle cx="68" cy="248" r="8" transform="rotate(-90 68 248)" fill="#C5BAFF" fill-opacity="0.3"/>
<circle cx="68" cy="228" r="8" transform="rotate(-90 68 228)" fill="#C5BAFF" fill-opacity="0.3"/>
<circle cx="68" cy="208" r="8" transform="rotate(-90 68 208)" fill="#C5BAFF" fill-opacity="0.3"/>
<circle cx="68" cy="188" r="8" transform="rotate(-90 68 188)" fill="#C5BAFF" fill-opacity="0.3"/>
<circle cx="68" cy="168" r="8" transform="rotate(-90 68 168)" fill="#C5BAFF" fill-opacity="0.3"/>
<circle cx="68" cy="148" r="8" transform="rotate(-90 68 148)" fill="#C5BAFF" fill-opacity="0.3"/>
<circle cx="68" cy="128" r="8" transform="rotate(-90 68 128)" fill="#C5BAFF" fill-opacity="0.3"/>
<circle cx="68" cy="108" r="8" transform="rotate(-90 68 108)" fill="#C5BAFF" fill-opacity="0.3"/>
<circle cx="68" cy="88" r="8" transform="rotate(-90 68 88)" fill="#C5BAFF" fill-opacity="0.3"/>
<circle cx="68" cy="68" r="8" transform="rotate(-90 68 68)" fill="#C5BAFF" fill-opacity="0.3"/>
<circle cx="68" cy="48" r="8" transform="rotate(-90 68 48)" fill="#C5BAFF" fill-opacity="0.3"/>
<circle cx="68" cy="28" r="8" transform="rotate(-90 68 28)" fill="#C5BAFF" fill-opacity="0.3"/>
<circle cx="68" cy="8" r="8" transform="rotate(-90 68 8)" fill="#C5BAFF" fill-opacity="0.3"/>
<circle cx="88" cy="388" r="8" transform="rotate(-90 88 388)" fill="#C5BAFF" fill-opacity="0.3"/>
<circle cx="88" cy="368" r="8" transform="rotate(-90 88 368)" fill="#C5BAFF" fill-opacity="0.3"/>
<circle cx="88" cy="348" r="8" transform="rotate(-90 88 348)" fill="#C5BAFF" fill-opacity="0.3"/>
<circle cx="88" cy="328" r="8" transform="rotate(-90 88 328)" fill="#C5BAFF" fill-opacity="0.3"/>
<circle cx="88" cy="308" r="8" transform="rotate(-90 88 308)" fill="#C5BAFF" fill-opacity="0.3"/>
<circle cx="88" cy="288" r="8" transform="rotate(-90 88 288)" fill="#C5BAFF" fill-opacity="0.3"/>
<circle cx="88" cy="268" r="8" transform="rotate(-90 88 268)" fill="#C5BAFF" fill-opacity="0.3"/>
<circle cx="88" cy="248" r="8" transform="rotate(-90 88 248)" fill="#C5BAFF" fill-opacity="0.3"/>
<circle cx="88" cy="228" r="8" transform="rotate(-90 88 228)" fill="#C5BAFF" fill-opacity="0.3"/>
<circle cx="88" cy="208" r="8" transform="rotate(-90 88 208)" fill="#C5BAFF" fill-opacity="0.3"/>
<circle cx="88" cy="188" r="8" transform="rotate(-90 88 188)" fill="#C5BAFF" fill-opacity="0.3"/>
<circle cx="88" cy="168" r="8" transform="rotate(-90 88 168)" fill="#C5BAFF" fill-opacity="0.3"/>
<circle cx="88" cy="148" r="8" transform="rotate(-90 88 148)" fill="#C5BAFF" fill-opacity="0.3"/>
<circle cx="88" cy="128" r="8" transform="rotate(-90 88 128)" fill="#C5BAFF" fill-opacity="0.3"/>
<circle cx="88" cy="108" r="8" transform="rotate(-90 88 108)" fill="#C5BAFF" fill-opacity="0.3"/>
<circle cx="88" cy="88" r="8" transform="rotate(-90 88 88)" fill="#C5BAFF" fill-opacity="0.3"/>
<circle cx="88" cy="68" r="8" transform="rotate(-90 88 68)" fill="#C5BAFF" fill-opacity="0.3"/>
<circle cx="88" cy="48" r="8" transform="rotate(-90 88 48)" fill="#C5BAFF" fill-opacity="0.3"/>
<circle cx="88" cy="28" r="8" transform="rotate(-90 88 28)" fill="#C5BAFF" fill-opacity="0.3"/>
<circle cx="88" cy="8" r="8" transform="rotate(-90 88 8)" fill="#C5BAFF" fill-opacity="0.3"/>
<circle cx="108" cy="388" r="8" transform="rotate(-90 108 388)" fill="#C5BAFF" fill-opacity="0.3"/>
<circle cx="108" cy="368" r="8" transform="rotate(-90 108 368)" fill="#C5BAFF" fill-opacity="0.3"/>
<circle cx="108" cy="348" r="8" transform="rotate(-90 108 348)" fill="#C5BAFF" fill-opacity="0.3"/>
<circle cx="108" cy="328" r="8" transform="rotate(-90 108 328)" fill="#C5BAFF" fill-opacity="0.3"/>
<circle cx="108" cy="308" r="8" transform="rotate(-90 108 308)" fill="#C5BAFF" fill-opacity="0.3"/>
<circle cx="108" cy="288" r="8" transform="rotate(-90 108 288)" fill="#C5BAFF" fill-opacity="0.3"/>
<circle cx="108" cy="268" r="8" transform="rotate(-90 108 268)" fill="#C5BAFF" fill-opacity="0.3"/>
<circle cx="108" cy="248" r="8" transform="rotate(-90 108 248)" fill="#C5BAFF" fill-opacity="0.3"/>
<circle cx="108" cy="228" r="8" transform="rotate(-90 108 228)" fill="#C5BAFF" fill-opacity="0.3"/>
<circle cx="108" cy="208" r="8" transform="rotate(-90 108 208)" fill="#C5BAFF" fill-opacity="0.3"/>
<circle cx="108" cy="188" r="8" transform="rotate(-90 108 188)" fill="#C5BAFF" fill-opacity="0.3"/>
<circle cx="108" cy="168" r="8" transform="rotate(-90 108 168)" fill="#C5BAFF" fill-opacity="0.3"/>
<circle cx="108" cy="148" r="8" transform="rotate(-90 108 148)" fill="#C5BAFF" fill-opacity="0.3"/>
<circle cx="108" cy="128" r="8" transform="rotate(-90 108 128)" fill="#C5BAFF" fill-opacity="0.3"/>
<circle cx="108" cy="108" r="8" transform="rotate(-90 108 108)" fill="#C5BAFF" fill-opacity="0.3"/>
<circle cx="108" cy="88" r="8" transform="rotate(-90 108 88)" fill="#C5BAFF" fill-opacity="0.3"/>
<circle cx="108" cy="68" r="8" transform="rotate(-90 108 68)" fill="#C5BAFF" fill-opacity="0.3"/>
<circle cx="108" cy="48" r="8" transform="rotate(-90 108 48)" fill="#C5BAFF" fill-opacity="0.3"/>
<circle cx="108" cy="28" r="8" transform="rotate(-90 108 28)" fill="#C5BAFF" fill-opacity="0.3"/>
<circle cx="108" cy="8" r="8" transform="rotate(-90 108 8)" fill="#C5BAFF" fill-opacity="0.3"/>
<circle cx="128" cy="388" r="8" transform="rotate(-90 128 388)" fill="#C5BAFF" fill-opacity="0.3"/>
<circle cx="128" cy="368" r="8" transform="rotate(-90 128 368)" fill="#C5BAFF" fill-opacity="0.3"/>
<circle cx="128" cy="348" r="8" transform="rotate(-90 128 348)" fill="#C5BAFF" fill-opacity="0.3"/>
<circle cx="128" cy="328" r="8" transform="rotate(-90 128 328)" fill="#C5BAFF" fill-opacity="0.3"/>
<circle cx="128" cy="308" r="8" transform="rotate(-90 128 308)" fill="#C5BAFF" fill-opacity="0.3"/>
<circle cx="128" cy="288" r="8" transform="rotate(-90 128 288)" fill="#C5BAFF" fill-opacity="0.3"/>
<circle cx="128" cy="268" r="8" transform="rotate(-90 128 268)" fill="#C5BAFF" fill-opacity="0.3"/>
<circle cx="128" cy="248" r="8" transform="rotate(-90 128 248)" fill="#C5BAFF" fill-opacity="0.3"/>
<circle cx="128" cy="228" r="8" transform="rotate(-90 128 228)" fill="#C5BAFF" fill-opacity="0.3"/>
<circle cx="128" cy="208" r="8" transform="rotate(-90 128 208)" fill="#C5BAFF" fill-opacity="0.3"/>
<circle cx="128" cy="188" r="8" transform="rotate(-90 128 188)" fill="#C5BAFF" fill-opacity="0.3"/>
<circle cx="128" cy="168" r="8" transform="rotate(-90 128 168)" fill="#C5BAFF" fill-opacity="0.3"/>
<circle cx="128" cy="148" r="8" transform="rotate(-90 128 148)" fill="#C5BAFF" fill-opacity="0.3"/>
<circle cx="128" cy="128" r="8" transform="rotate(-90 128 128)" fill="#C5BAFF" fill-opacity="0.3"/>
<circle cx="128" cy="108" r="8" transform="rotate(-90 128 108)" fill="#C5BAFF" fill-opacity="0.3"/>
<circle cx="128" cy="88" r="8" transform="rotate(-90 128 88)" fill="#C5BAFF" fill-opacity="0.3"/>
<circle cx="128" cy="68" r="8" transform="rotate(-90 128 68)" fill="#C5BAFF" fill-opacity="0.3"/>
<circle cx="128" cy="48" r="8" transform="rotate(-90 128 48)" fill="#C5BAFF" fill-opacity="0.3"/>
<circle cx="128" cy="28" r="8" transform="rotate(-90 128 28)" fill="#C5BAFF" fill-opacity="0.3"/>
<circle cx="128" cy="8" r="8" transform="rotate(-90 128 8)" fill="#C5BAFF" fill-opacity="0.3"/>
<circle cx="148" cy="388" r="8" transform="rotate(-90 148 388)" fill="#C5BAFF" fill-opacity="0.3"/>
<circle cx="148" cy="368" r="8" transform="rotate(-90 148 368)" fill="#C5BAFF" fill-opacity="0.3"/>
<circle cx="148" cy="348" r="8" transform="rotate(-90 148 348)" fill="#C5BAFF" fill-opacity="0.3"/>
<circle cx="148" cy="328" r="8" transform="rotate(-90 148 328)" fill="#C5BAFF" fill-opacity="0.3"/>
<circle cx="148" cy="308" r="8" transform="rotate(-90 148 308)" fill="#C5BAFF" fill-opacity="0.3"/>
<circle cx="148" cy="288" r="8" transform="rotate(-90 148 288)" fill="#C5BAFF" fill-opacity="0.3"/>
<circle cx="148" cy="268" r="8" transform="rotate(-90 148 268)" fill="#C5BAFF" fill-opacity="0.3"/>
<circle cx="148" cy="248" r="8" transform="rotate(-90 148 248)" fill="#C5BAFF" fill-opacity="0.3"/>
<circle cx="148" cy="228" r="8" transform="rotate(-90 148 228)" fill="#C5BAFF" fill-opacity="0.3"/>
<circle cx="148" cy="208" r="8" transform="rotate(-90 148 208)" fill="#C5BAFF" fill-opacity="0.3"/>
<circle cx="148" cy="188" r="8" transform="rotate(-90 148 188)" fill="#C5BAFF" fill-opacity="0.3"/>
<circle cx="148" cy="168" r="8" transform="rotate(-90 148 168)" fill="#C5BAFF" fill-opacity="0.3"/>
<circle cx="148" cy="148" r="8" transform="rotate(-90 148 148)" fill="#C5BAFF" fill-opacity="0.3"/>
<circle cx="148" cy="128" r="8" transform="rotate(-90 148 128)" fill="#C5BAFF" fill-opacity="0.3"/>
<circle cx="148" cy="108" r="8" transform="rotate(-90 148 108)" fill="#C5BAFF" fill-opacity="0.3"/>
<circle cx="148" cy="88" r="8" transform="rotate(-90 148 88)" fill="#C5BAFF" fill-opacity="0.3"/>
<circle cx="148" cy="68" r="8" transform="rotate(-90 148 68)" fill="#C5BAFF" fill-opacity="0.3"/>
<circle cx="148" cy="48" r="8" transform="rotate(-90 148 48)" fill="#C5BAFF" fill-opacity="0.3"/>
<circle cx="148" cy="28" r="8" transform="rotate(-90 148 28)" fill="#C5BAFF" fill-opacity="0.3"/>
<circle cx="148" cy="8" r="8" transform="rotate(-90 148 8)" fill="#C5BAFF" fill-opacity="0.3"/>
</svg>
