<svg width="208" height="832" viewBox="0 0 208 832" fill="none" xmlns="http://www.w3.org/2000/svg">
<path d="M4.07843 0H0V832H4.07843V0Z" fill="#C5BAFF" fill-opacity="0.5"/>
<path d="M22.157 0H18.0786V832H22.157V0Z" fill="#C5BAFF" fill-opacity="0.5"/>
<path d="M40.2357 0H36.1572V832H40.2357V0Z" fill="#C5BAFF" fill-opacity="0.5"/>
<path d="M58.3143 0H54.2358V832H58.3143V0Z" fill="#C5BAFF" fill-opacity="0.5"/>
<path d="M76.3929 0H72.3145V832H76.3929V0Z" fill="#C5BAFF" fill-opacity="0.5"/>
<path d="M94.4715 0H90.3931V832H94.4715V0Z" fill="#C5BAFF" fill-opacity="0.5"/>
<path d="M112.55 0H108.472V832H112.55V0Z" fill="#C5BAFF" fill-opacity="0.5"/>
<path d="M130.629 0H126.55V832H130.629V0Z" fill="#C5BAFF" fill-opacity="0.5"/>
<path d="M148.707 0H144.629V832H148.707V0Z" fill="#C5BAFF" fill-opacity="0.5"/>
<path d="M166.786 0H162.708V832H166.786V0Z" fill="#C5BAFF" fill-opacity="0.5"/>
<path d="M184.865 0H180.786V832H184.865V0Z" fill="#C5BAFF" fill-opacity="0.5"/>
<path d="M162 739.623V753.952H152.49L144.1 832H72.0193L61.8227 753.952H51V739.623H78.3202V637.703H79.155V739.623H104.994V532H105.829V739.623H162Z" fill="#424242"/>
<path d="M114.729 526.648C114.748 528.075 114.382 529.486 113.658 530.771C113.507 531.031 113.346 531.284 113.166 531.536C112.579 532.352 111.847 533.084 110.996 533.704C110.741 533.904 110.469 534.086 110.181 534.25C108.447 535.3 106.392 535.888 104.272 535.94C102.152 535.993 100.061 535.506 98.2599 534.543C97.9309 534.358 97.6145 534.156 97.3123 533.94C96.0295 533.072 94.9927 531.964 94.2803 530.701C93.5679 529.438 93.1984 528.052 93.1997 526.648C93.1997 526.469 93.1997 526.298 93.1997 526.118C93.2152 525.829 93.25 525.541 93.3039 525.255C93.5416 523.896 94.1274 522.6 95.0189 521.46C95.9104 520.32 97.0854 519.365 98.4589 518.663C98.7526 518.517 99.0559 518.37 99.4065 518.248C101.845 517.26 104.624 517.09 107.2 517.771C109.777 518.452 111.965 519.935 113.336 521.931C113.534 522.212 113.711 522.503 113.867 522.802C114.473 524.016 114.767 525.328 114.729 526.648Z" fill="#D192D1"/>
<path d="M92.2141 517.009C92.2141 517.009 43.1285 496.877 65.198 489.129C87.2676 481.38 92.2141 517.009 92.2141 517.009Z" fill="#C4D9FF"/>
<path d="M102.979 515.046C102.979 515.046 82.7381 471.636 105.073 478.798C127.408 485.959 102.979 515.046 102.979 515.046Z" fill="#C4D9FF"/>
<path d="M114.833 518.68C114.833 518.68 135.159 475.302 145.516 493.756C155.873 512.21 114.833 518.68 114.833 518.68Z" fill="#C4D9FF"/>
<path d="M89.343 525.744C89.343 525.744 43.8583 551.408 47.6013 531.17C51.3443 510.932 89.343 525.744 89.343 525.744Z" fill="#C4D9FF"/>
<path d="M120.708 526.371C120.708 526.371 174.835 521.751 160.621 538.201C146.407 554.651 120.708 526.371 120.708 526.371Z" fill="#C4D9FF"/>
<path d="M104.58 539.562C104.58 539.562 124.735 582.996 102.41 575.81C80.0846 568.624 104.58 539.562 104.58 539.562Z" fill="#C4D9FF"/>
<path d="M116.543 540.624C116.543 540.624 160.699 559.144 139.359 568.874C118.019 578.604 116.543 540.624 116.543 540.624Z" fill="#C4D9FF"/>
<path d="M92.6596 536.066C92.6596 536.066 70.8649 578.89 61.1141 560.175C51.3633 541.46 92.6596 536.066 92.6596 536.066Z" fill="#C4D9FF"/>
<path d="M89.4092 624.336C89.4092 624.336 109.735 580.967 120.102 599.421C130.469 617.876 89.4092 624.336 89.4092 624.336Z" fill="#C4D9FF"/>
<path d="M146 686C146 686 154.163 668.351 158.326 675.861C162.489 683.371 146 686 146 686Z" fill="#C4D9FF"/>
<path d="M89.3142 632.313C89.3178 633.75 88.9283 635.168 88.1771 636.452C88.031 636.711 87.8697 636.964 87.6938 637.21C87.1134 638.017 86.3873 638.741 85.5428 639.352C85.2873 639.546 85.0183 639.725 84.7373 639.89C82.9903 640.957 80.9131 641.551 78.7711 641.598C76.6291 641.644 74.5196 641.14 72.7123 640.151C72.3808 639.972 72.0642 639.773 71.7647 639.556C70.4978 638.689 69.4749 637.588 68.7726 636.334C68.0703 635.079 67.7067 633.705 67.709 632.313C67.709 632.134 67.709 631.954 67.709 631.775C67.709 631.482 67.7659 631.197 67.8132 630.912C68.051 629.561 68.6308 628.273 69.5118 627.137C70.3927 626 71.5533 625.044 72.9113 624.337C73.2022 624.186 73.5028 624.05 73.8115 623.929C75.2617 623.325 76.8529 623.013 78.4642 623.017C80.3321 623.017 82.1683 623.432 83.7939 624.223C85.4196 625.014 86.7795 626.154 87.7412 627.53C87.9317 627.811 88.1057 628.099 88.2624 628.394C88.947 629.617 89.3063 630.956 89.3142 632.313Z" fill="#D192D1"/>
<path d="M66.7996 622.666C66.7996 622.666 17.7141 602.534 39.7457 594.794C61.7774 587.053 66.7996 622.666 66.7996 622.666Z" fill="#C4D9FF"/>
<path d="M77.5547 620.703C77.5547 620.703 57.3235 577.301 79.6489 584.463C101.974 591.624 77.5547 620.703 77.5547 620.703Z" fill="#C4D9FF"/>
<path d="M63.9187 631.392C63.9187 631.392 18.434 657.057 22.2244 636.81C26.0148 616.564 63.9187 631.392 63.9187 631.392Z" fill="#C4D9FF"/>
<path d="M95.2939 632.036C95.2939 632.036 149.411 627.408 135.197 643.858C120.983 660.308 95.2939 632.036 95.2939 632.036Z" fill="#C4D9FF"/>
<path d="M79.1656 645.243C79.1656 645.243 99.3116 688.677 76.9956 681.483C54.6797 674.289 79.1656 645.243 79.1656 645.243Z" fill="#C4D9FF"/>
<path d="M67.2257 641.715C67.2257 641.715 45.4309 684.538 35.6896 665.815C25.9483 647.092 67.2257 641.715 67.2257 641.715Z" fill="#C4D9FF"/>
<path d="M92.5078 644.192C92.5078 644.192 142.399 662.809 120.67 671.225C98.942 679.642 92.5078 644.192 92.5078 644.192Z" fill="#C4D9FF"/>
<line x1="140.701" y1="692.387" x2="140.701" y2="740" stroke="#424242"/>
<path d="M145.456 689.025C145.458 689.646 145.288 690.259 144.959 690.814C144.895 690.926 144.824 691.035 144.747 691.141C144.493 691.49 144.176 691.803 143.806 692.067C143.694 692.151 143.577 692.228 143.454 692.299C142.689 692.76 141.78 693.017 140.843 693.037C139.905 693.058 138.982 692.84 138.191 692.412C138.046 692.335 137.908 692.249 137.777 692.155C137.222 691.781 136.775 691.304 136.467 690.762C136.16 690.22 136.001 689.626 136.002 689.025C136.002 688.947 136.002 688.87 136.002 688.792C136.002 688.666 136.027 688.542 136.048 688.419C136.152 687.836 136.405 687.279 136.791 686.788C137.176 686.297 137.684 685.883 138.279 685.578C138.406 685.513 138.537 685.454 138.672 685.401C139.307 685.14 140.003 685.006 140.708 685.007C141.526 685.007 142.329 685.187 143.041 685.529C143.752 685.87 144.347 686.363 144.768 686.958C144.851 687.079 144.928 687.203 144.996 687.331C145.296 687.86 145.453 688.438 145.456 689.025Z" fill="#D192D1"/>
<path d="M135.604 684.856C135.604 684.856 114.124 676.155 123.766 672.81C133.407 669.464 135.604 684.856 135.604 684.856Z" fill="#C4D9FF"/>
<path d="M140.311 684.007C140.311 684.007 131.458 665.25 141.227 668.345C150.997 671.44 140.311 684.007 140.311 684.007Z" fill="#C4D9FF"/>
<path d="M134.344 688.627C134.344 688.627 114.44 699.718 116.098 690.968C117.757 682.218 134.344 688.627 134.344 688.627Z" fill="#C4D9FF"/>
<path d="M148.073 688.905C148.073 688.905 171.755 686.905 165.535 694.014C159.315 701.123 148.073 688.905 148.073 688.905Z" fill="#C4D9FF"/>
<path d="M141.016 694.613C141.016 694.613 149.831 713.384 140.066 710.275C130.3 707.166 141.016 694.613 141.016 694.613Z" fill="#C4D9FF"/>
<path d="M135.791 693.088C135.791 693.088 126.253 711.595 121.99 703.504C117.728 695.412 135.791 693.088 135.791 693.088Z" fill="#C4D9FF"/>
<path d="M146.854 694.158C146.854 694.158 168.687 702.204 159.179 705.842C149.67 709.479 146.854 694.158 146.854 694.158Z" fill="#C4D9FF"/>
</svg>
