<svg width="627" height="594" viewBox="0 0 627 594" fill="none" xmlns="http://www.w3.org/2000/svg">
<path d="M404.523 130.916C416.474 140.569 424.554 153.647 431.134 168.186C435.308 177.408 438.803 187.026 442.31 196.675C444.373 202.351 446.439 208.037 448.65 213.659C450.785 219.088 453.063 224.478 455.338 229.86C459.296 239.224 463.243 248.562 466.401 258.029C471.337 272.826 474.167 287.492 471.803 302.035C469.463 316.43 462.601 328.692 453.644 339.833C445.503 349.958 435.717 359.057 426.133 367.969C425.153 368.881 424.174 369.791 423.2 370.699C405.067 387.612 383.067 398.223 359.512 406.43C336.621 414.405 313.3 419.9 288.866 417.526C262.623 414.977 235.155 410.619 215.05 392.648C205.151 383.8 198.6 372.271 193.377 359.553C189.954 351.218 187.162 342.545 184.359 333.836C182.855 329.164 181.347 324.481 179.737 319.834C171.202 295.203 164.784 270.75 164.215 245.375C164.151 242.521 164.067 239.649 163.982 236.769C163.645 225.327 163.304 213.755 164.236 202.675C165.399 188.845 168.536 176.022 176.008 165.525C183.451 155.07 194.374 149.179 206.685 144.676C212.227 142.648 217.997 140.921 223.83 139.174C224.477 138.98 225.124 138.786 225.772 138.592C232.241 136.65 238.754 134.644 244.946 132.165C250.673 129.873 256.311 127.369 261.898 124.888C262.339 124.692 262.78 124.496 263.221 124.3C269.253 121.623 275.233 118.992 281.278 116.665C293.367 112.011 305.614 108.614 318.767 108.54C348.613 108.372 380.541 111.544 404.523 130.916Z" stroke="#C5BAFF" stroke-width="4"/>
<path d="M398.487 149.062C410.437 158.716 418.518 171.794 425.098 186.332C429.272 195.554 432.767 205.173 436.274 214.821C438.337 220.497 440.403 226.184 442.614 231.806C444.748 237.234 447.027 242.625 449.302 248.006C453.26 257.37 457.207 266.708 460.365 276.175C465.301 290.973 468.131 305.638 465.767 320.182C463.427 334.576 456.565 346.839 447.607 357.98C439.467 368.105 429.681 377.204 420.097 386.115C419.117 387.027 418.138 387.937 417.164 388.846C399.031 405.758 377.031 416.37 353.476 424.576C330.585 432.552 307.264 438.046 282.83 435.673C256.586 433.124 229.119 428.765 209.014 410.795C199.115 401.947 192.564 390.418 187.341 377.7C183.918 369.365 181.126 360.692 178.323 351.983C176.818 347.31 175.311 342.627 173.701 337.98C165.166 313.349 158.748 288.896 158.179 263.522C158.115 260.668 158.03 257.796 157.946 254.915C157.608 243.473 157.268 231.902 158.2 220.822C159.363 206.992 162.5 194.168 169.972 183.672C177.414 173.217 188.338 167.325 200.648 162.822C206.191 160.795 211.961 159.067 217.794 157.32C218.441 157.127 219.088 156.933 219.736 156.738C226.205 154.796 232.718 152.791 238.91 150.312C244.637 148.019 250.275 145.516 255.861 143.034C256.303 142.838 256.744 142.642 257.185 142.447C263.217 139.77 269.197 137.139 275.242 134.811C287.331 130.157 299.578 126.76 312.731 126.686C342.576 126.519 374.505 129.69 398.487 149.062Z" stroke="#C5BAFF" stroke-width="4"/>
</svg>
