<svg width="145" height="354" viewBox="0 0 145 354" fill="none" xmlns="http://www.w3.org/2000/svg">
<path d="M140 261.623V275.952H130.49L122.1 354H50.0193L39.8227 275.952H29V261.623H56.3202V159.703H57.155V261.623H82.9944V54H83.8292V261.623H140Z" fill="#424242"/>
<path d="M92.7291 48.648C92.7483 50.0749 92.3817 51.4862 91.6584 52.7706C91.5067 53.0313 91.3457 53.2839 91.1656 53.5365C90.5792 54.3524 89.8469 55.0838 88.9956 55.7037C88.7412 55.9039 88.4687 56.0865 88.1807 56.2496C86.447 57.3001 84.3918 57.8882 82.2717 57.9404C80.1516 57.9925 78.0606 57.5065 76.2599 56.5429C75.9309 56.3576 75.6145 56.1563 75.3123 55.94C74.0295 55.0715 72.9927 53.9639 72.2803 52.7007C71.5679 51.4376 71.1984 50.0518 71.1997 48.648C71.1997 48.4687 71.1997 48.2976 71.1997 48.1184C71.2152 47.829 71.25 47.5407 71.3039 47.2547C71.5416 45.8964 72.1274 44.6003 73.0189 43.4604C73.9104 42.3205 75.0854 41.3651 76.4589 40.6634C76.7526 40.5168 77.0559 40.3701 77.4065 40.2479C79.8447 39.2599 82.624 39.0898 85.2004 39.7709C87.7768 40.4521 89.9648 41.9354 91.3362 43.9305C91.5336 44.2115 91.7108 44.5027 91.8668 44.8023C92.4726 46.016 92.7667 47.3277 92.7291 48.648Z" fill="#D192D1"/>
<path d="M70.2141 39.0094C70.2141 39.0094 21.1285 18.877 43.198 11.1287C65.2676 3.38042 70.2141 39.0094 70.2141 39.0094Z" fill="#C4D9FF"/>
<path d="M80.9788 37.046C80.9788 37.046 60.7381 -6.36384 83.073 0.797814C105.408 7.95946 80.9788 37.046 80.9788 37.046Z" fill="#C4D9FF"/>
<path d="M92.833 40.6795C92.833 40.6795 113.159 -2.69776 123.516 15.7563C133.873 34.2104 92.833 40.6795 92.833 40.6795Z" fill="#C4D9FF"/>
<path d="M67.343 47.7437C67.343 47.7437 21.8583 73.4083 25.6013 53.1699C29.3443 32.9316 67.343 47.7437 67.343 47.7437Z" fill="#C4D9FF"/>
<path d="M98.7085 48.3709C98.7085 48.3709 152.835 43.7512 138.621 60.201C124.407 76.6508 98.7085 48.3709 98.7085 48.3709Z" fill="#C4D9FF"/>
<path d="M82.58 61.5616C82.58 61.5616 102.735 104.996 80.41 97.8099C58.0846 90.6238 82.58 61.5616 82.58 61.5616Z" fill="#C4D9FF"/>
<path d="M94.5426 62.624C94.5426 62.624 138.699 81.1441 117.359 90.8739C96.019 100.604 94.5426 62.624 94.5426 62.624Z" fill="#C4D9FF"/>
<path d="M70.6596 58.0664C70.6596 58.0664 48.8649 100.89 39.1141 82.1748C29.3633 63.46 70.6596 58.0664 70.6596 58.0664Z" fill="#C4D9FF"/>
<path d="M67.4092 146.336C67.4092 146.336 87.7352 102.967 98.1019 121.421C108.469 139.876 67.4092 146.336 67.4092 146.336Z" fill="#C4D9FF"/>
<path d="M124 208C124 208 132.163 190.351 136.326 197.861C140.489 205.371 124 208 124 208Z" fill="#C4D9FF"/>
<path d="M67.3142 154.313C67.3178 155.75 66.9283 157.168 66.1771 158.452C66.031 158.711 65.8697 158.964 65.6938 159.21C65.1134 160.017 64.3873 160.741 63.5428 161.352C63.2873 161.546 63.0183 161.725 62.7373 161.89C60.9903 162.957 58.9131 163.551 56.7711 163.598C54.6291 163.644 52.5196 163.14 50.7123 162.151C50.3808 161.972 50.0642 161.773 49.7647 161.556C48.4978 160.689 47.4749 159.588 46.7726 158.334C46.0703 157.079 45.7067 155.705 45.709 154.313C45.709 154.134 45.709 153.954 45.709 153.775C45.709 153.482 45.7659 153.197 45.8132 152.912C46.051 151.561 46.6308 150.273 47.5118 149.137C48.3927 148 49.5533 147.044 50.9113 146.337C51.2022 146.186 51.5028 146.05 51.8115 145.929C53.2617 145.325 54.8529 145.013 56.4642 145.017C58.3321 145.017 60.1683 145.432 61.7939 146.223C63.4196 147.014 64.7795 148.154 65.7412 149.53C65.9317 149.811 66.1057 150.099 66.2624 150.394C66.947 151.617 67.3063 152.956 67.3142 154.313Z" fill="#D192D1"/>
<path d="M44.7996 144.666C44.7996 144.666 -4.28595 124.534 17.7457 116.794C39.7774 109.053 44.7996 144.666 44.7996 144.666Z" fill="#C4D9FF"/>
<path d="M55.5547 142.703C55.5547 142.703 35.3235 99.3011 57.6489 106.463C79.9743 113.624 55.5547 142.703 55.5547 142.703Z" fill="#C4D9FF"/>
<path d="M41.9187 153.392C41.9187 153.392 -3.566 179.057 0.224391 158.81C4.01478 138.564 41.9187 153.392 41.9187 153.392Z" fill="#C4D9FF"/>
<path d="M73.2939 154.036C73.2939 154.036 127.411 149.408 113.197 165.858C98.9833 182.308 73.2939 154.036 73.2939 154.036Z" fill="#C4D9FF"/>
<path d="M57.1656 167.243C57.1656 167.243 77.3116 210.677 54.9956 203.483C32.6797 196.289 57.1656 167.243 57.1656 167.243Z" fill="#C4D9FF"/>
<path d="M45.2257 163.715C45.2257 163.715 23.4309 206.538 13.6896 187.815C3.9483 169.092 45.2257 163.715 45.2257 163.715Z" fill="#C4D9FF"/>
<path d="M70.5078 166.192C70.5078 166.192 120.399 184.809 98.6704 193.225C76.942 201.642 70.5078 166.192 70.5078 166.192Z" fill="#C4D9FF"/>
<line x1="118.701" y1="214.387" x2="118.701" y2="262" stroke="#424242"/>
<path d="M123.456 211.025C123.458 211.646 123.288 212.259 122.959 212.814C122.895 212.926 122.824 213.035 122.747 213.141C122.493 213.49 122.176 213.803 121.806 214.067C121.694 214.151 121.577 214.228 121.454 214.299C120.689 214.76 119.78 215.017 118.843 215.037C117.905 215.058 116.982 214.84 116.191 214.412C116.046 214.335 115.908 214.249 115.777 214.155C115.222 213.781 114.775 213.304 114.467 212.762C114.16 212.22 114.001 211.626 114.002 211.025C114.002 210.947 114.002 210.87 114.002 210.792C114.002 210.666 114.027 210.542 114.048 210.419C114.152 209.836 114.405 209.279 114.791 208.788C115.176 208.297 115.684 207.883 116.279 207.578C116.406 207.513 116.537 207.454 116.672 207.401C117.307 207.14 118.003 207.006 118.708 207.007C119.526 207.007 120.329 207.187 121.041 207.529C121.752 207.87 122.347 208.363 122.768 208.958C122.851 209.079 122.928 209.203 122.996 209.331C123.296 209.86 123.453 210.438 123.456 211.025Z" fill="#D192D1"/>
<path d="M113.604 206.856C113.604 206.856 92.1245 198.155 101.766 194.81C111.407 191.464 113.604 206.856 113.604 206.856Z" fill="#C4D9FF"/>
<path d="M118.311 206.007C118.311 206.007 109.458 187.25 119.227 190.345C128.997 193.44 118.311 206.007 118.311 206.007Z" fill="#C4D9FF"/>
<path d="M112.344 210.627C112.344 210.627 92.4395 221.718 94.0982 212.968C95.7569 204.218 112.344 210.627 112.344 210.627Z" fill="#C4D9FF"/>
<path d="M126.073 210.905C126.073 210.905 149.755 208.905 143.535 216.014C137.315 223.123 126.073 210.905 126.073 210.905Z" fill="#C4D9FF"/>
<path d="M119.016 216.613C119.016 216.613 127.831 235.384 118.066 232.275C108.3 229.166 119.016 216.613 119.016 216.613Z" fill="#C4D9FF"/>
<path d="M113.791 215.088C113.791 215.088 104.253 233.595 99.9905 225.504C95.7277 217.412 113.791 215.088 113.791 215.088Z" fill="#C4D9FF"/>
<path d="M124.854 216.158C124.854 216.158 146.687 224.204 137.179 227.842C127.67 231.479 124.854 216.158 124.854 216.158Z" fill="#C4D9FF"/>
</svg>
