<svg width="102" height="383" viewBox="0 0 102 383" fill="none" xmlns="http://www.w3.org/2000/svg">
<path d="M2 0H0V383H2V0Z" fill="#B2B5E0"/>
<path d="M12 0H10V383H12V0Z" fill="#B2B5E0"/>
<path d="M22 0H20V383H22V0Z" fill="#B2B5E0"/>
<path d="M32 0H30V383H32V0Z" fill="#B2B5E0"/>
<path d="M42 0H40V383H42V0Z" fill="#B2B5E0"/>
<path d="M52 0H50V383H52V0Z" fill="#B2B5E0"/>
<path d="M62 0H60V383H62V0Z" fill="#B2B5E0"/>
<path d="M72 0H70V383H72V0Z" fill="#B2B5E0"/>
<path d="M82 0H80V383H82V0Z" fill="#B2B5E0"/>
<path d="M92 0H90V383H92V0Z" fill="#B2B5E0"/>
<path d="M102 0H100V383H102V0Z" fill="#B2B5E0"/>
</svg>
