<svg width="102" height="215" viewBox="0 0 102 215" fill="none" xmlns="http://www.w3.org/2000/svg">
<g clip-path="url(#clip0_42_418)">
<path d="M2 0H0V215H2V0Z" fill="#B2B5E0"/>
<path d="M12 0H10V215H12V0Z" fill="#B2B5E0"/>
<path d="M22 0H20V215H22V0Z" fill="#B2B5E0"/>
<path d="M32 0H30V215H32V0Z" fill="#B2B5E0"/>
<path d="M42 0H40V215H42V0Z" fill="#B2B5E0"/>
<path d="M52 0H50V215H52V0Z" fill="#B2B5E0"/>
<path d="M62 0H60V215H62V0Z" fill="#B2B5E0"/>
<path d="M72 0H70V215H72V0Z" fill="#B2B5E0"/>
<path d="M82 0H80V215H82V0Z" fill="#B2B5E0"/>
<path d="M92 0H90V215H92V0Z" fill="#B2B5E0"/>
<path d="M102 0H100V215H102V0Z" fill="#B2B5E0"/>
</g>
<defs>
<clipPath id="clip0_42_418">
<rect width="102" height="215" fill="white"/>
</clipPath>
</defs>
</svg>
