<svg width="595" height="496" viewBox="0 0 595 496" fill="none" xmlns="http://www.w3.org/2000/svg">
<path d="M594 335.109C570.555 283.84 539.472 226.091 492.991 189.08C393.05 109.528 318 250.141 316.114 326.526C315.575 355.508 321.364 384.297 333.14 411.2C344.917 438.103 362.444 462.577 384.69 483.182C390.064 488.107 396.035 492.946 403.547 494.473C422.781 498.476 437.74 478.919 443.177 461.523C462.631 399.252 436.892 330.759 391.95 280.73C351.502 235.654 250.147 151.666 181.005 152.731C161.143 153.019 142.82 162.38 126.415 172.605C87.7319 196.755 54.2006 227.193 27.4798 262.411C12.9287 281.594 0.10609 303.484 1.04893 326.785C2.05462 352.188 20.2514 375.605 44.6395 387.731C75.1874 402.91 118.841 405.415 144.549 381.481C178.554 349.798 180.628 287.93 182.86 246.887C187.228 165.174 177.894 81.6469 163.437 1" stroke="#96C2DB" stroke-width="2" stroke-miterlimit="10"/>
</svg>
