<svg width="243" height="503" viewBox="0 0 243 503" fill="none" xmlns="http://www.w3.org/2000/svg">
<path d="M88.6947 43.9264L83.4002 63.4429C81.4876 63.7267 79.5218 63.6127 77.673 63.1108C75.8243 62.6089 74.1482 61.7342 72.7898 60.5625L78.4745 41.2182C82.0757 20.8886 90.5992 19.61 97.6119 24.0894C104.625 28.5688 100.644 42.3275 95.5285 44.407C90.413 46.4865 82.2511 40.4112 82.2511 40.4112" fill="white"/>
<path d="M88.6947 43.9264L83.4002 63.4429C81.4876 63.7267 79.5218 63.6127 77.673 63.1108C75.8243 62.6089 74.1482 61.7342 72.7898 60.5625L78.4745 41.2182C82.0757 20.8886 90.5992 19.61 97.6119 24.0894C104.625 28.5688 100.644 42.3275 95.5285 44.407C90.413 46.4865 82.2511 40.4112 82.2511 40.4112" stroke="#002349" stroke-miterlimit="10"/>
<path d="M165.976 46.3369L166.743 114.794C167.039 115.894 167.073 117.037 166.842 118.15C166.611 119.262 166.121 120.318 165.404 121.25L165.267 121.43C164.519 122.404 163.541 123.22 162.402 123.819C161.263 124.419 159.991 124.787 158.676 124.899C157.36 125.011 156.033 124.864 154.789 124.467C153.544 124.071 152.411 123.434 151.471 122.604L103.921 80.6018L116.899 65.8472L149.781 97.1185L151.931 46.8887C150.677 42.7366 146.884 33.14 148.182 30.0092C149.811 26.0736 152.02 40.4259 152.051 40.7764L152.661 35.8989C152.661 35.8989 152.909 29.497 154.205 24.3146C155.476 19.184 156.386 35.466 156.413 35.8684C156.413 35.655 156.679 28.7898 158.291 24.2841C159.903 19.7785 159.814 35.155 159.814 35.5391C159.872 35.3014 161.774 27.5552 163.413 24.839C165.053 22.1228 164.276 35.7464 164.252 36.1184C164.327 35.7952 166.838 25.1194 167.851 25.4121C168.791 25.6285 166.355 43.6115 165.976 46.3369Z" fill="white" stroke="#002349" stroke-width="2" stroke-miterlimit="10"/>
<path d="M119.022 194.6L145.681 285.808C145.681 285.808 177.796 429.327 203.52 468.528L194.71 475.579C194.71 475.579 130.273 399.916 116.395 303.138L64.666 212.236L119.022 194.6Z" fill="white" stroke="#002349" stroke-width="2" stroke-miterlimit="10"/>
<path d="M95.6493 191.75L82.0168 287.061C82.0168 287.061 51.8037 433.696 58.6199 479.527L47.9014 483.185C47.9014 483.185 21.5906 389.706 48.8761 293.481L40.1035 189.921L95.6493 191.75Z" fill="white" stroke="#002349" stroke-width="2" stroke-miterlimit="10"/>
<path d="M77.0817 57.9211H82.4188C88.1287 57.9211 93.6047 59.95 97.6422 63.5615C101.68 67.1729 103.948 72.0711 103.948 77.1784V114.102C103.948 119.01 101.768 123.718 97.8878 127.188C94.0075 130.659 88.7447 132.609 83.2572 132.609H76.2433C73.5261 132.609 70.8356 132.13 68.3253 131.2C65.8149 130.27 63.534 128.907 61.6127 127.188C57.7324 123.718 55.5525 119.01 55.5525 114.102V77.1784C55.5525 72.0711 57.8207 67.1729 61.8582 63.5615C65.8957 59.95 71.3718 57.9211 77.0817 57.9211Z" fill="#B2B5E0"/>
<path d="M79.6931 63.1749C80.6342 63.1749 81.3971 62.4925 81.3971 61.6507C81.3971 60.8089 80.6342 60.1265 79.6931 60.1265C78.752 60.1265 77.989 60.8089 77.989 61.6507C77.989 62.4925 78.752 63.1749 79.6931 63.1749Z" stroke="white" stroke-width="2" stroke-miterlimit="10"/>
<path d="M79.6931 71.2689C80.6342 71.2689 81.3971 70.5865 81.3971 69.7447C81.3971 68.9029 80.6342 68.2205 79.6931 68.2205C78.752 68.2205 77.989 68.9029 77.989 69.7447C77.989 70.5865 78.752 71.2689 79.6931 71.2689Z" stroke="white" stroke-width="2" stroke-miterlimit="10"/>
<path d="M79.6931 79.3627C80.6342 79.3627 81.3971 78.6803 81.3971 77.8385C81.3971 76.9966 80.6342 76.3142 79.6931 76.3142C78.752 76.3142 77.989 76.9966 77.989 77.8385C77.989 78.6803 78.752 79.3627 79.6931 79.3627Z" stroke="white" stroke-width="2" stroke-miterlimit="10"/>
<path d="M79.6931 87.4567C80.6342 87.4567 81.3971 86.7743 81.3971 85.9324C81.3971 85.0906 80.6342 84.4082 79.6931 84.4082C78.752 84.4082 77.989 85.0906 77.989 85.9324C77.989 86.7743 78.752 87.4567 79.6931 87.4567Z" stroke="white" stroke-width="2" stroke-miterlimit="10"/>
<path d="M79.6931 95.5507C80.6342 95.5507 81.3971 94.8683 81.3971 94.0264C81.3971 93.1846 80.6342 92.5022 79.6931 92.5022C78.752 92.5022 77.989 93.1846 77.989 94.0264C77.989 94.8683 78.752 95.5507 79.6931 95.5507Z" stroke="white" stroke-width="2" stroke-miterlimit="10"/>
<path d="M79.6931 103.645C80.6342 103.645 81.3971 102.962 81.3971 102.12C81.3971 101.279 80.6342 100.596 79.6931 100.596C78.752 100.596 77.989 101.279 77.989 102.12C77.989 102.962 78.752 103.645 79.6931 103.645Z" stroke="white" stroke-width="2" stroke-miterlimit="10"/>
<path d="M79.6931 111.739C80.6342 111.739 81.3971 111.056 81.3971 110.214C81.3971 109.373 80.6342 108.69 79.6931 108.69C78.752 108.69 77.989 109.373 77.989 110.214C77.989 111.056 78.752 111.739 79.6931 111.739Z" stroke="white" stroke-width="2" stroke-miterlimit="10"/>
<path d="M95.3154 31.0398L94.9541 37.655" stroke="#000F20" stroke-width="2" stroke-miterlimit="10"/>
<path d="M92.5207 31.4421C92.8199 31.4421 93.0625 31.2251 93.0625 30.9574C93.0625 30.6897 92.8199 30.4727 92.5207 30.4727C92.2214 30.4727 91.9788 30.6897 91.9788 30.9574C91.9788 31.2251 92.2214 31.4421 92.5207 31.4421Z" fill="#000F20"/>
<path d="M97.9328 31.7653C98.232 31.7653 98.4747 31.5483 98.4747 31.2806C98.4747 31.0129 98.232 30.7959 97.9328 30.7959C97.6335 30.7959 97.3909 31.0129 97.3909 31.2806C97.3909 31.5483 97.6335 31.7653 97.9328 31.7653Z" fill="#000F20"/>
<path d="M87.5891 46.6082C87.5891 46.6082 82.8927 44.6663 82.2485 40.3162C82.2485 40.3162 86.3076 43.3006 88.2025 43.703L87.5891 46.6082Z" fill="black"/>
<path d="M92.4972 58.5978C95.5383 56.1234 99.553 54.8317 103.657 55.0055C107.761 55.1793 111.618 56.8039 114.381 59.5208L135.352 80.1427L112.428 98.7936L91.4575 78.1717C88.6947 75.4548 87.2508 71.8668 87.445 68.196C87.6393 64.525 89.4561 61.0721 92.4972 58.5978Z" fill="#B2B5E0" stroke="#969BE1"/>
<path d="M135.831 227.749C132.495 227.883 128.374 227.783 123.882 227.643C115.41 227.384 105.615 226.987 97.2409 227.783C92.6535 228.216 88.4922 229.002 85.2136 230.38C84.5073 230.671 83.8241 231.006 83.1687 231.38C78.3121 234.151 71.213 234.828 63.5958 234.401C60.1545 234.192 56.7287 233.813 53.3339 233.267C47.1407 232.258 41.0193 230.923 35.0015 229.271C31.8899 228.426 29.252 227.63 27.3264 227.024C25.1282 226.338 23.8569 225.893 23.8569 225.893L55.9309 117.367H57.5054L62.8733 117.33H64.9454L71.8571 117.281L85.3431 117.19L92.3809 117.141L98.6382 117.098L102.82 117.071H103.672C103.672 117.071 142.46 216.138 144.164 224.369C144.645 226.688 141.277 227.533 135.831 227.749Z" fill="#002349"/>
<path d="M43.2833 241.44L23.8569 225.893L43.5594 231.337L44.6466 241.44H43.2833Z" fill="#000F20"/>
<path d="M127.805 227.417L88.9524 238.391L90.2066 228.731C90.2066 228.731 106.562 225.448 127.805 227.417Z" fill="#000F20"/>
<path d="M144.583 224.948C144.583 224.948 139.393 233.334 130.872 235.343L127.464 227.417C127.464 227.417 141.254 228.88 144.583 224.948Z" fill="#000F20"/>
<path d="M44.9873 474.21L46.7936 487.992C46.7936 487.992 71.9116 498.247 88.2706 495.044C88.2706 495.044 67.7639 480.514 58.0814 476.561C58.0814 476.561 60.3444 483.225 44.9873 474.21Z" fill="#002349"/>
<path d="M189.151 471.122L196.922 480.433L202.654 479.191C202.654 479.191 227.459 475.878 239.268 464.558C239.268 464.558 212.531 463.949 201.779 465.979C201.761 465.988 207.968 470.092 189.151 471.122Z" fill="#002349"/>
<path d="M39.7047 150.159L35.3048 227.417C36.5011 231.578 39.1731 241.687 37.8302 244.793C36.1262 248.756 35.1037 233.514 35.1037 233.514L34.4221 238.392C34.4221 238.392 34.0813 244.793 32.718 249.976C31.3548 255.158 30.6732 238.392 30.6732 238.392C30.6732 238.392 30.3323 245.403 28.6283 249.976C26.9242 254.549 27.265 238.696 27.265 238.696C27.265 238.696 25.2201 246.623 23.5161 249.366C21.812 252.11 22.8345 238.087 22.8345 238.087C22.8345 238.087 20.1079 249.061 19.0855 248.756C18.1415 248.476 20.8271 230.56 21.2463 227.801L21.4712 149.15L42.346 78.8857L63.1152 81.6294L39.7047 150.159Z" fill="white" stroke="#002349" stroke-width="2" stroke-miterlimit="10"/>
<path d="M62.0907 57.642C64.0609 58.128 65.9038 58.9563 67.5141 60.0784C69.1245 61.2006 70.4694 62.5937 71.4739 64.1765C72.4783 65.7593 73.1223 67.5003 73.3721 69.2995C73.6219 71.0985 73.473 72.9218 72.9351 74.6662L64.6547 101.519L34.7424 94.1389L43.0227 67.2864C44.1084 63.7654 46.7162 60.764 50.2891 58.9499C53.864 57.1349 58.1099 56.6598 62.0907 57.642Z" fill="#B2B5E0" stroke="#969BE1"/>
<path d="M86.6289 10.4473C86.6289 10.4473 84.3341 10.354 83.1965 10.4496C68.1584 11.7128 68.7037 19.6276 66.411 22.9867C64.1183 26.3457 65.2563 28.062 66.411 31.9768C67.5657 35.8915 64.1015 34.7882 61.2231 37.0439C58.3446 39.2996 54.5875 42.3971 59.7754 44.6528L88.6188 49.7199C89.1856 48.696 89.5891 47.5936 89.8153 46.4508C90.0078 46.508 90.1919 46.5652 90.3843 46.6061C91.1465 46.8112 91.9294 46.9345 92.7189 46.9739H93.0955C95.0662 47.0049 96.9708 46.2802 98.4006 44.9552C103.212 40.5909 102.953 32.5652 102.082 27.1548H107.103C107.103 27.1548 114.033 9.59731 86.6289 10.4473ZM96.6936 43.2307C95.6597 44.2002 94.2583 44.7039 92.8277 44.6201C91.7916 44.5608 90.7718 44.34 89.807 43.9663C89.6008 43.0512 89.0849 42.2306 88.3427 41.637C84.8784 38.8174 81.9999 36.5617 84.3011 34.2815C86.6022 32.0013 86.0332 29.2143 84.3011 26.926L84.2257 26.8851C84.2257 26.8851 84.658 26.4949 85.138 26.0162C85.6179 25.5375 85.6257 24.5498 86.2005 24.9154L89.7568 27.2284H99.5134C100.367 32.1402 100.777 39.5284 96.6936 43.2307Z" fill="#000F20"/>
<g clip-path="url(#clip0_42_694)">
<path d="M57.0942 98.1766L54.3586 95.1948L50.2745 96.4713L47.5361 93.4888L43.452 94.7653L40.7109 91.7821L36.9045 92.9718L36.4763 92.7429L40.8378 91.3807L43.5788 94.3639L47.663 93.0874L50.4013 96.0699L54.4854 94.7934L57.2211 97.7752L61.3052 96.4987L64.2301 99.6829L63.7305 99.6798L61.1783 96.9001L57.0942 98.1766Z" fill="white"/>
<path d="M59.0619 91.9501L56.3263 88.9683L52.2422 90.2448L49.5038 87.2623L45.4197 88.5388L42.6786 85.5557L38.8722 86.7453L38.4439 86.5164L42.8058 85.1532L45.5469 88.1363L49.631 86.8599L52.3693 89.8423L56.4535 88.5659L59.1891 91.5476L63.2732 90.2712L66.1977 93.4564L65.6982 93.4533L63.146 90.6736L59.0619 91.9501Z" fill="white"/>
<path d="M58.4171 93.9901L55.6815 91.0084L51.5974 92.2848L48.859 89.3024L44.7749 90.5788L42.0338 87.5957L38.2274 88.7854L37.7992 88.5565L42.161 87.1932L44.9021 90.1764L48.9862 88.8999L51.7246 91.8824L55.8087 90.6059L58.5443 93.5877L62.6284 92.3112L65.553 95.4965L65.0534 95.4933L62.5012 92.7137L58.4171 93.9901Z" fill="white"/>
<path d="M59.7405 89.8026L57.0048 86.8208L52.9207 88.0972L50.1824 85.1148L46.0982 86.3912L43.3572 83.4081L39.5504 84.5988L39.1222 84.37L43.484 83.0067L46.2251 85.9898L50.3092 84.7134L53.0476 87.6958L57.1317 86.4194L59.8673 89.4012L63.9514 88.1247L66.876 91.31L66.3764 91.3068L63.8246 88.5261L59.7405 89.8026Z" fill="white"/>
<path d="M57.7726 96.0302L55.037 93.0484L50.9528 94.3249L48.2145 91.3424L44.1304 92.6189L41.3893 89.6357L37.5829 90.8254L37.1546 90.5965L41.5162 89.2343L44.2576 92.2164L48.3417 90.9399L51.08 93.9224L55.1642 92.6459L57.8998 95.6277L61.9839 94.3513L64.9084 97.5365L64.4088 97.5334L61.8567 94.7537L57.7726 96.0302Z" fill="white"/>
</g>
<g clip-path="url(#clip1_42_694)">
<path d="M128.607 84.5374L124.3 84.899L123.218 88.6277L118.909 88.991L117.827 92.7197L113.516 93.0847L112.508 96.5598L112.055 96.7489L113.211 92.7675L117.523 92.4026L118.605 88.6739L122.914 88.3106L123.996 84.5819L128.303 84.2202L129.385 80.4915L133.986 80.1026L133.705 80.4701L129.689 80.8087L128.607 84.5374Z" fill="white"/>
<path d="M123.888 79.6171L119.581 79.9787L118.499 83.7074L114.189 84.0707L113.108 87.7994L108.796 88.1644L107.788 91.6395L107.336 91.8286L108.491 87.8464L112.803 87.4814L113.884 83.7527L118.194 83.3894L119.276 79.6607L123.583 79.299L124.664 75.5703L129.267 75.1823L128.986 75.5498L124.97 75.8884L123.888 79.6171Z" fill="white"/>
<path d="M125.434 81.2291L121.127 81.5908L120.045 85.3195L115.736 85.6828L114.654 89.4115L110.342 89.7765L109.334 93.2516L108.882 93.4407L110.037 89.4584L114.349 89.0935L115.431 85.3648L119.74 85.0015L120.822 81.2728L125.129 80.9111L126.211 77.1824L130.813 76.7944L130.532 77.1618L126.516 77.5004L125.434 81.2291Z" fill="white"/>
<path d="M122.26 77.9202L117.953 78.2819L116.871 82.0106L112.562 82.3739L111.48 86.1026L107.168 86.4675L106.161 89.9435L105.709 90.1326L106.864 86.1503L111.176 85.7854L112.257 82.0567L116.567 81.6934L117.649 77.9647L121.956 77.603L123.038 73.8743L127.64 73.4863L127.359 73.8537L123.342 74.1915L122.26 77.9202Z" fill="white"/>
<path d="M126.98 82.8412L122.673 83.2029L121.591 86.9316L117.282 87.2949L116.2 91.0236L111.888 91.3885L110.88 94.8637L110.428 95.0527L111.584 91.0713L115.895 90.7055L116.977 86.9768L121.286 86.6135L122.368 82.8848L126.675 82.5232L127.757 78.7945L132.359 78.4064L132.078 78.7739L128.062 79.1125L126.98 82.8412Z" fill="white"/>
</g>
<defs>
<clipPath id="clip0_42_694">
<rect width="28.6083" height="11.4364" fill="white" transform="matrix(0.97013 0.242586 -0.301307 0.953527 39.8408 82.0957)"/>
</clipPath>
<clipPath id="clip1_42_694">
<rect width="27.533" height="11.9403" fill="white" transform="matrix(0.796534 -0.604593 0.692223 0.721684 103.985 88.3354)"/>
</clipPath>
</defs>
</svg>
