<svg width="102" height="390" viewBox="0 0 102 390" fill="none" xmlns="http://www.w3.org/2000/svg">
<g clip-path="url(#clip0_42_938)">
<path d="M2 0H0V390H2V0Z" fill="#B2B5E0"/>
<path d="M12 0H10V390H12V0Z" fill="#B2B5E0"/>
<path d="M22 0H20V390H22V0Z" fill="#B2B5E0"/>
<path d="M32 0H30V390H32V0Z" fill="#B2B5E0"/>
<path d="M42 0H40V390H42V0Z" fill="#B2B5E0"/>
<path d="M52 0H50V390H52V0Z" fill="#B2B5E0"/>
<path d="M62 0H60V390H62V0Z" fill="#B2B5E0"/>
<path d="M72 0H70V390H72V0Z" fill="#B2B5E0"/>
<path d="M82 0H80V390H82V0Z" fill="#B2B5E0"/>
<path d="M92 0H90V390H92V0Z" fill="#B2B5E0"/>
<path d="M102 0H100V390H102V0Z" fill="#B2B5E0"/>
</g>
<defs>
<clipPath id="clip0_42_938">
<rect width="102" height="390" fill="white"/>
</clipPath>
</defs>
</svg>
