<svg width="527" height="524" viewBox="0 0 527 524" fill="none" xmlns="http://www.w3.org/2000/svg">
<path d="M292.071 129.461C303.571 133.061 313.153 140.333 322.049 149.167C327.697 154.776 332.934 160.865 338.2 166.989C341.306 170.6 344.423 174.224 347.64 177.769C350.747 181.191 353.941 184.531 357.126 187.86C362.652 193.638 368.148 199.385 373.105 205.477C380.844 214.99 386.945 224.991 389.156 236.413C391.346 247.723 389.603 258.81 385.977 269.723C382.68 279.646 377.873 289.297 373.152 298.778C372.67 299.747 372.188 300.713 371.709 301.679C362.826 319.583 349.327 333.975 333.98 347.063C319.064 359.784 303.176 370.762 284.319 376.235C263.976 382.14 242.35 387.016 222.511 379.677C212.762 376.07 204.747 369.496 197.366 361.613C192.524 356.443 188.072 350.847 183.588 345.213C181.175 342.181 178.753 339.137 176.257 336.142C163.112 320.373 151.621 304.134 144.242 285.492C143.407 283.382 142.552 281.266 141.695 279.146C138.298 270.738 134.873 262.262 132.531 253.77C129.609 243.175 128.446 232.784 131.124 222.851C133.788 212.969 140.275 205.4 148.227 198.41C151.808 195.262 155.641 192.269 159.525 189.236C159.955 188.9 160.386 188.563 160.817 188.226C165.123 184.86 169.455 181.424 173.419 177.728C177.077 174.316 180.611 170.774 184.107 167.27C184.384 166.992 184.661 166.715 184.937 166.438C188.714 162.654 192.458 158.926 196.333 155.406C204.082 148.366 212.272 142.232 222.033 138.292C244.311 129.3 268.952 122.226 292.071 129.461Z" stroke="#B2B5E0" stroke-width="4"/>
<path d="M292.544 144.752C304.045 148.352 313.626 155.623 322.522 164.458C328.171 170.067 333.407 176.156 338.674 182.28C341.78 185.891 344.896 189.515 348.114 193.059C351.22 196.482 354.415 199.822 357.599 203.151C363.125 208.929 368.622 214.676 373.578 220.768C381.318 230.281 387.419 240.282 389.63 251.704C391.82 263.014 390.076 274.101 386.451 285.014C383.153 294.937 378.347 304.588 373.626 314.069C373.143 315.038 372.662 316.004 372.183 316.97C363.299 334.874 349.801 349.266 334.454 362.354C319.537 375.075 303.649 386.053 284.793 391.526C264.45 397.431 242.824 402.307 222.985 394.967C213.236 391.361 205.221 384.787 197.84 376.904C192.998 371.734 188.545 366.138 184.062 360.504C181.649 357.472 179.227 354.428 176.731 351.433C163.586 335.664 152.094 319.425 144.716 300.783C143.881 298.673 143.026 296.557 142.169 294.437C138.772 286.029 135.347 277.553 133.005 269.061C130.082 258.466 128.919 248.075 131.598 238.142C134.262 228.26 140.749 220.691 148.701 213.701C152.281 210.553 156.114 207.56 159.999 204.527C160.429 204.191 160.86 203.854 161.291 203.517C165.596 200.15 169.929 196.714 173.892 193.019C177.551 189.607 181.085 186.065 184.581 182.561C184.858 182.283 185.134 182.006 185.411 181.729C189.187 177.945 192.932 174.217 196.807 170.697C204.555 163.657 212.745 157.523 222.507 153.583C244.785 144.591 269.426 137.516 292.544 144.752Z" stroke="#96C2DB" stroke-width="4"/>
</svg>
