<svg width="173" height="102" viewBox="0 0 173 102" fill="none" xmlns="http://www.w3.org/2000/svg">
<g clip-path="url(#clip0_42_617)">
<path d="M0 100L0 102L173 102V100L0 100Z" fill="#B2B5E0"/>
<path d="M0 90L0 92L173 92V90L0 90Z" fill="#B2B5E0"/>
<path d="M0 80L0 82L173 82V80L0 80Z" fill="#B2B5E0"/>
<path d="M0 70L0 72L173 72V70L0 70Z" fill="#B2B5E0"/>
<path d="M0 60L0 62L173 62V60L0 60Z" fill="#B2B5E0"/>
<path d="M0 50L0 52L173 52V50L0 50Z" fill="#B2B5E0"/>
<path d="M0 40L0 42L173 42V40L0 40Z" fill="#B2B5E0"/>
<path d="M0 30L0 32L173 32V30L0 30Z" fill="#B2B5E0"/>
<path d="M0 20L0 22L173 22V20L0 20Z" fill="#B2B5E0"/>
<path d="M0 10L0 12L173 12V10L0 10Z" fill="#B2B5E0"/>
<path d="M0 0L0 2L173 2V0L0 0Z" fill="#B2B5E0"/>
</g>
<defs>
<clipPath id="clip0_42_617">
<rect width="102" height="173" fill="white" transform="matrix(0 -1 1 0 0 102)"/>
</clipPath>
</defs>
</svg>
